<svg width="16" height="16" viewBox="0 0 16 16" fill="none" xmlns="http://www.w3.org/2000/svg">
<mask id="path-2-inside-1_70_438" fill="white">
<path d="M11.5 9.69108C11.8682 9.69108 12.1667 9.3926 12.1667 9.02441C12.1667 8.65622 11.8682 8.35775 11.5 8.35775C11.1318 8.35775 10.8333 8.65622 10.8333 9.02441C10.8333 9.3926 11.1318 9.69108 11.5 9.69108Z"/>
<path d="M11.5 12.3577C11.8682 12.3577 12.1667 12.0593 12.1667 11.6911C12.1667 11.3229 11.8682 11.0244 11.5 11.0244C11.1318 11.0244 10.8333 11.3229 10.8333 11.6911C10.8333 12.0593 11.1318 12.3577 11.5 12.3577Z"/>
<path d="M8.83333 9.02441C8.83333 9.3926 8.53486 9.69108 8.16667 9.69108C7.79848 9.69108 7.5 9.3926 7.5 9.02441C7.5 8.65622 7.79848 8.35775 8.16667 8.35775C8.53486 8.35775 8.83333 8.65622 8.83333 9.02441Z"/>
<path d="M8.83333 11.6911C8.83333 12.0593 8.53486 12.3577 8.16667 12.3577C7.79848 12.3577 7.5 12.0593 7.5 11.6911C7.5 11.3229 7.79848 11.0244 8.16667 11.0244C8.53486 11.0244 8.83333 11.3229 8.83333 11.6911Z"/>
<path d="M4.83333 9.69108C5.20152 9.69108 5.5 9.3926 5.5 9.02441C5.5 8.65622 5.20152 8.35775 4.83333 8.35775C4.46514 8.35775 4.16667 8.65622 4.16667 9.02441C4.16667 9.3926 4.46514 9.69108 4.83333 9.69108Z"/>
<path d="M4.83333 12.3577C5.20152 12.3577 5.5 12.0593 5.5 11.6911C5.5 11.3229 5.20152 11.0244 4.83333 11.0244C4.46514 11.0244 4.16667 11.3229 4.16667 11.6911C4.16667 12.0593 4.46514 12.3577 4.83333 12.3577Z"/>
<path fill-rule="evenodd" clip-rule="evenodd" d="M4.83333 1.52441C5.10948 1.52441 5.33333 1.74827 5.33333 2.02441V2.53289C5.77467 2.52441 6.26089 2.52441 6.79564 2.52441H9.53761C10.0724 2.52441 10.5587 2.52441 11 2.53289V2.02441C11 1.74827 11.2239 1.52441 11.5 1.52441C11.7761 1.52441 12 1.74827 12 2.02441V2.57581C12.1733 2.58902 12.3374 2.60563 12.4927 2.6265C13.2743 2.73159 13.9069 2.953 14.4058 3.45191C14.9047 3.95082 15.1262 4.58345 15.2312 5.36507C15.3334 6.12454 15.3333 7.09495 15.3333 8.32011V9.72869C15.3333 10.9538 15.3334 11.9243 15.2312 12.6838C15.1262 13.4654 14.9047 14.098 14.4058 14.5969C13.9069 15.0958 13.2743 15.3172 12.4927 15.4223C11.7332 15.5244 10.7628 15.5244 9.53764 15.5244H6.79573C5.57057 15.5244 4.60012 15.5244 3.84065 15.4223C3.05904 15.3172 2.4264 15.0958 1.9275 14.5969C1.42859 14.098 1.20718 13.4654 1.10209 12.6838C0.999981 11.9243 0.99999 10.9539 1 9.72869V8.32014C0.99999 7.09496 0.999981 6.12454 1.10209 5.36507C1.20718 4.58345 1.42859 3.95082 1.9275 3.45191C2.4264 2.953 3.05904 2.73159 3.84065 2.6265C3.99594 2.60563 4.16004 2.58902 4.33333 2.57581V2.02441C4.33333 1.74827 4.55719 1.52441 4.83333 1.52441ZM3.9739 3.61759C3.30317 3.70776 2.91674 3.87688 2.6346 4.15902C2.35246 4.44116 2.18335 4.82759 2.09317 5.49831C2.0779 5.6119 2.06513 5.73149 2.05446 5.85775H14.2789C14.2682 5.73149 14.2554 5.6119 14.2402 5.49831C14.15 4.82759 13.9809 4.44116 13.6987 4.15902C13.4166 3.87688 13.0302 3.70776 12.3594 3.61759C11.6743 3.52548 10.7712 3.52441 9.5 3.52441H6.83333C5.56212 3.52441 4.65901 3.52548 3.9739 3.61759ZM2 8.35775C2 7.7884 2.00021 7.2929 2.00872 6.85775H14.3246C14.3331 7.2929 14.3333 7.7884 14.3333 8.35775V9.69108C14.3333 10.9623 14.3323 11.8654 14.2402 12.5505C14.15 13.2212 13.9809 13.6077 13.6987 13.8898C13.4166 14.172 13.0302 14.3411 12.3594 14.4312C11.6743 14.5234 10.7712 14.5244 9.5 14.5244H6.83333C5.56212 14.5244 4.65901 14.5234 3.9739 14.4312C3.30317 14.3411 2.91674 14.172 2.6346 13.8898C2.35246 13.6077 2.18335 13.2212 2.09317 12.5505C2.00106 11.8654 2 10.9623 2 9.69108V8.35775Z"/>
</mask>
<path d="M11.5 9.69108C11.8682 9.69108 12.1667 9.3926 12.1667 9.02441C12.1667 8.65622 11.8682 8.35775 11.5 8.35775C11.1318 8.35775 10.8333 8.65622 10.8333 9.02441C10.8333 9.3926 11.1318 9.69108 11.5 9.69108Z" fill="#D6D3D1"/>
<path d="M11.5 12.3577C11.8682 12.3577 12.1667 12.0593 12.1667 11.6911C12.1667 11.3229 11.8682 11.0244 11.5 11.0244C11.1318 11.0244 10.8333 11.3229 10.8333 11.6911C10.8333 12.0593 11.1318 12.3577 11.5 12.3577Z" fill="#D6D3D1"/>
<path d="M8.83333 9.02441C8.83333 9.3926 8.53486 9.69108 8.16667 9.69108C7.79848 9.69108 7.5 9.3926 7.5 9.02441C7.5 8.65622 7.79848 8.35775 8.16667 8.35775C8.53486 8.35775 8.83333 8.65622 8.83333 9.02441Z" fill="#D6D3D1"/>
<path d="M8.83333 11.6911C8.83333 12.0593 8.53486 12.3577 8.16667 12.3577C7.79848 12.3577 7.5 12.0593 7.5 11.6911C7.5 11.3229 7.79848 11.0244 8.16667 11.0244C8.53486 11.0244 8.83333 11.3229 8.83333 11.6911Z" fill="#D6D3D1"/>
<path d="M4.83333 9.69108C5.20152 9.69108 5.5 9.3926 5.5 9.02441C5.5 8.65622 5.20152 8.35775 4.83333 8.35775C4.46514 8.35775 4.16667 8.65622 4.16667 9.02441C4.16667 9.3926 4.46514 9.69108 4.83333 9.69108Z" fill="#D6D3D1"/>
<path d="M4.83333 12.3577C5.20152 12.3577 5.5 12.0593 5.5 11.6911C5.5 11.3229 5.20152 11.0244 4.83333 11.0244C4.46514 11.0244 4.16667 11.3229 4.16667 11.6911C4.16667 12.0593 4.46514 12.3577 4.83333 12.3577Z" fill="#D6D3D1"/>
<path fill-rule="evenodd" clip-rule="evenodd" d="M4.83333 1.52441C5.10948 1.52441 5.33333 1.74827 5.33333 2.02441V2.53289C5.77467 2.52441 6.26089 2.52441 6.79564 2.52441H9.53761C10.0724 2.52441 10.5587 2.52441 11 2.53289V2.02441C11 1.74827 11.2239 1.52441 11.5 1.52441C11.7761 1.52441 12 1.74827 12 2.02441V2.57581C12.1733 2.58902 12.3374 2.60563 12.4927 2.6265C13.2743 2.73159 13.9069 2.953 14.4058 3.45191C14.9047 3.95082 15.1262 4.58345 15.2312 5.36507C15.3334 6.12454 15.3333 7.09495 15.3333 8.32011V9.72869C15.3333 10.9538 15.3334 11.9243 15.2312 12.6838C15.1262 13.4654 14.9047 14.098 14.4058 14.5969C13.9069 15.0958 13.2743 15.3172 12.4927 15.4223C11.7332 15.5244 10.7628 15.5244 9.53764 15.5244H6.79573C5.57057 15.5244 4.60012 15.5244 3.84065 15.4223C3.05904 15.3172 2.4264 15.0958 1.9275 14.5969C1.42859 14.098 1.20718 13.4654 1.10209 12.6838C0.999981 11.9243 0.99999 10.9539 1 9.72869V8.32014C0.99999 7.09496 0.999981 6.12454 1.10209 5.36507C1.20718 4.58345 1.42859 3.95082 1.9275 3.45191C2.4264 2.953 3.05904 2.73159 3.84065 2.6265C3.99594 2.60563 4.16004 2.58902 4.33333 2.57581V2.02441C4.33333 1.74827 4.55719 1.52441 4.83333 1.52441ZM3.9739 3.61759C3.30317 3.70776 2.91674 3.87688 2.6346 4.15902C2.35246 4.44116 2.18335 4.82759 2.09317 5.49831C2.0779 5.6119 2.06513 5.73149 2.05446 5.85775H14.2789C14.2682 5.73149 14.2554 5.6119 14.2402 5.49831C14.15 4.82759 13.9809 4.44116 13.6987 4.15902C13.4166 3.87688 13.0302 3.70776 12.3594 3.61759C11.6743 3.52548 10.7712 3.52441 9.5 3.52441H6.83333C5.56212 3.52441 4.65901 3.52548 3.9739 3.61759ZM2 8.35775C2 7.7884 2.00021 7.2929 2.00872 6.85775H14.3246C14.3331 7.2929 14.3333 7.7884 14.3333 8.35775V9.69108C14.3333 10.9623 14.3323 11.8654 14.2402 12.5505C14.15 13.2212 13.9809 13.6077 13.6987 13.8898C13.4166 14.172 13.0302 14.3411 12.3594 14.4312C11.6743 14.5234 10.7712 14.5244 9.5 14.5244H6.83333C5.56212 14.5244 4.65901 14.5234 3.9739 14.4312C3.30317 14.3411 2.91674 14.172 2.6346 13.8898C2.35246 13.6077 2.18335 13.2212 2.09317 12.5505C2.00106 11.8654 2 10.9623 2 9.69108V8.35775Z" fill="#D6D3D1"/>
<path d="M11.5 9.69108C11.8682 9.69108 12.1667 9.3926 12.1667 9.02441C12.1667 8.65622 11.8682 8.35775 11.5 8.35775C11.1318 8.35775 10.8333 8.65622 10.8333 9.02441C10.8333 9.3926 11.1318 9.69108 11.5 9.69108Z" stroke="#686868" stroke-width="2" mask="url(#path-2-inside-1_70_438)"/>
<path d="M11.5 12.3577C11.8682 12.3577 12.1667 12.0593 12.1667 11.6911C12.1667 11.3229 11.8682 11.0244 11.5 11.0244C11.1318 11.0244 10.8333 11.3229 10.8333 11.6911C10.8333 12.0593 11.1318 12.3577 11.5 12.3577Z" stroke="#686868" stroke-width="2" mask="url(#path-2-inside-1_70_438)"/>
<path d="M8.83333 9.02441C8.83333 9.3926 8.53486 9.69108 8.16667 9.69108C7.79848 9.69108 7.5 9.3926 7.5 9.02441C7.5 8.65622 7.79848 8.35775 8.16667 8.35775C8.53486 8.35775 8.83333 8.65622 8.83333 9.02441Z" stroke="#686868" stroke-width="2" mask="url(#path-2-inside-1_70_438)"/>
<path d="M8.83333 11.6911C8.83333 12.0593 8.53486 12.3577 8.16667 12.3577C7.79848 12.3577 7.5 12.0593 7.5 11.6911C7.5 11.3229 7.79848 11.0244 8.16667 11.0244C8.53486 11.0244 8.83333 11.3229 8.83333 11.6911Z" stroke="#686868" stroke-width="2" mask="url(#path-2-inside-1_70_438)"/>
<path d="M4.83333 9.69108C5.20152 9.69108 5.5 9.3926 5.5 9.02441C5.5 8.65622 5.20152 8.35775 4.83333 8.35775C4.46514 8.35775 4.16667 8.65622 4.16667 9.02441C4.16667 9.3926 4.46514 9.69108 4.83333 9.69108Z" stroke="#686868" stroke-width="2" mask="url(#path-2-inside-1_70_438)"/>
<path d="M4.83333 12.3577C5.20152 12.3577 5.5 12.0593 5.5 11.6911C5.5 11.3229 5.20152 11.0244 4.83333 11.0244C4.46514 11.0244 4.16667 11.3229 4.16667 11.6911C4.16667 12.0593 4.46514 12.3577 4.83333 12.3577Z" stroke="#686868" stroke-width="2" mask="url(#path-2-inside-1_70_438)"/>
<path fill-rule="evenodd" clip-rule="evenodd" d="M4.83333 1.52441C5.10948 1.52441 5.33333 1.74827 5.33333 2.02441V2.53289C5.77467 2.52441 6.26089 2.52441 6.79564 2.52441H9.53761C10.0724 2.52441 10.5587 2.52441 11 2.53289V2.02441C11 1.74827 11.2239 1.52441 11.5 1.52441C11.7761 1.52441 12 1.74827 12 2.02441V2.57581C12.1733 2.58902 12.3374 2.60563 12.4927 2.6265C13.2743 2.73159 13.9069 2.953 14.4058 3.45191C14.9047 3.95082 15.1262 4.58345 15.2312 5.36507C15.3334 6.12454 15.3333 7.09495 15.3333 8.32011V9.72869C15.3333 10.9538 15.3334 11.9243 15.2312 12.6838C15.1262 13.4654 14.9047 14.098 14.4058 14.5969C13.9069 15.0958 13.2743 15.3172 12.4927 15.4223C11.7332 15.5244 10.7628 15.5244 9.53764 15.5244H6.79573C5.57057 15.5244 4.60012 15.5244 3.84065 15.4223C3.05904 15.3172 2.4264 15.0958 1.9275 14.5969C1.42859 14.098 1.20718 13.4654 1.10209 12.6838C0.999981 11.9243 0.99999 10.9539 1 9.72869V8.32014C0.99999 7.09496 0.999981 6.12454 1.10209 5.36507C1.20718 4.58345 1.42859 3.95082 1.9275 3.45191C2.4264 2.953 3.05904 2.73159 3.84065 2.6265C3.99594 2.60563 4.16004 2.58902 4.33333 2.57581V2.02441C4.33333 1.74827 4.55719 1.52441 4.83333 1.52441ZM3.9739 3.61759C3.30317 3.70776 2.91674 3.87688 2.6346 4.15902C2.35246 4.44116 2.18335 4.82759 2.09317 5.49831C2.0779 5.6119 2.06513 5.73149 2.05446 5.85775H14.2789C14.2682 5.73149 14.2554 5.6119 14.2402 5.49831C14.15 4.82759 13.9809 4.44116 13.6987 4.15902C13.4166 3.87688 13.0302 3.70776 12.3594 3.61759C11.6743 3.52548 10.7712 3.52441 9.5 3.52441H6.83333C5.56212 3.52441 4.65901 3.52548 3.9739 3.61759ZM2 8.35775C2 7.7884 2.00021 7.2929 2.00872 6.85775H14.3246C14.3331 7.2929 14.3333 7.7884 14.3333 8.35775V9.69108C14.3333 10.9623 14.3323 11.8654 14.2402 12.5505C14.15 13.2212 13.9809 13.6077 13.6987 13.8898C13.4166 14.172 13.0302 14.3411 12.3594 14.4312C11.6743 14.5234 10.7712 14.5244 9.5 14.5244H6.83333C5.56212 14.5244 4.65901 14.5234 3.9739 14.4312C3.30317 14.3411 2.91674 14.172 2.6346 13.8898C2.35246 13.6077 2.18335 13.2212 2.09317 12.5505C2.00106 11.8654 2 10.9623 2 9.69108V8.35775Z" stroke="#686868" stroke-width="2" mask="url(#path-2-inside-1_70_438)"/>
</svg>
