<svg width="32" height="32" viewBox="0 0 32 32" fill="none" xmlns="http://www.w3.org/2000/svg">
    <path fill-rule="evenodd" clip-rule="evenodd" d="M24.2497 7.75041C24.6402 8.14094 24.6402 8.7741 24.2497 9.16463L9.16474 24.2496C8.77421 24.6401 8.14105 24.6401 7.75052 24.2496C7.36 23.859 7.36 23.2259 7.75052 22.8354L22.8355 7.75041C23.226 7.35989 23.8592 7.35989 24.2497 7.75041Z" fill="white"/>
    <path fill-rule="evenodd" clip-rule="evenodd" d="M24.2497 24.2494C23.8592 24.64 23.226 24.64 22.8355 24.2494L7.75055 9.16449C7.36003 8.77397 7.36003 8.1408 7.75055 7.75028C8.14107 7.35975 8.77424 7.35976 9.16476 7.75028L24.2497 22.8352C24.6402 23.2257 24.6402 23.8589 24.2497 24.2494Z" fill="white"/>
</svg>
