<svg width="72" height="75" viewBox="0 0 72 75" fill="none" xmlns="http://www.w3.org/2000/svg">
    <path d="M70.6773 51.8968C67.2916 48.8406 66.0348 44.0303 67.5541 39.6833C67.9185 38.6402 67.3184 37.5049 66.2493 37.2205C59.2847 35.3679 55.7768 27.5478 59.003 21.1192C59.5683 19.9926 58.898 18.6368 57.6618 18.4013C51.0105 17.1301 46.8992 10.3037 48.9507 3.79227C49.2727 2.77053 48.6851 1.68208 47.6521 1.39216C44.3594 0.468234 40.9443 0 37.5001 0C16.8226 0 0 16.8223 0 37.4999C0 58.1774 16.8223 74.9997 37.4999 74.9997C52.0046 74.9997 64.8721 66.7095 71.1059 54.1514C71.4846 53.389 71.3093 52.4673 70.6773 51.8968ZM37.5001 71.2004C18.9175 71.2004 3.79979 56.0823 3.79979 37.5001C3.79979 18.918 18.9177 3.79954 37.5001 3.79954C39.9822 3.79954 42.4473 4.0699 44.8512 4.6046C43.5664 11.9862 47.8477 19.0958 54.735 21.5338C52.2955 29.0243 56.0519 37.2674 63.4489 40.2812C62.4196 45.114 63.8226 50.0883 67.0754 53.6649C61.2918 64.2281 50.1241 71.2004 37.5001 71.2004Z" fill="white"/>
    <path d="M17.3099 38.8725C14.0325 38.8725 11.3661 41.5387 11.3661 44.8166C11.3661 48.0937 14.0323 50.7604 17.3099 50.7604C20.5871 50.7604 23.2538 48.0942 23.2538 44.8166C23.2535 41.5387 20.5873 38.8725 17.3099 38.8725ZM17.3099 46.9606C16.1274 46.9606 15.1656 45.9988 15.1656 44.8163C15.1656 43.6338 16.1274 42.6718 17.3099 42.6718C18.4922 42.6718 19.4542 43.6338 19.4542 44.8163C19.4542 45.9988 18.4922 46.9606 17.3099 46.9606Z" fill="white"/>
    <path d="M67.6523 2C65.7225 2 64.1523 3.56995 64.1523 5.50007C64.1523 7.42976 65.7223 9 67.6523 9C69.5821 9 71.1523 7.43005 71.1523 5.50007C71.1522 3.56995 69.5822 2 67.6523 2ZM67.6523 6.76256C66.956 6.76256 66.3897 6.19622 66.3897 5.49993C66.3897 4.80363 66.956 4.23715 67.6523 4.23715C68.3485 4.23715 68.915 4.80363 68.915 5.49993C68.915 6.19622 68.3485 6.76256 67.6523 6.76256Z" fill="white"/>
    <path d="M68.6523 18C67.2739 18 66.1523 19.1214 66.1523 20.5001C66.1523 21.8784 67.2738 23 68.6523 23C70.0307 23 71.1523 21.8786 71.1523 20.5001C71.1522 19.1214 70.0308 18 68.6523 18ZM68.6523 21.4018C68.155 21.4018 67.7504 20.9973 67.7504 20.4999C67.7504 20.0026 68.155 19.598 68.6523 19.598C69.1496 19.598 69.5542 20.0026 69.5542 20.4999C69.5542 20.9973 69.1496 21.4018 68.6523 21.4018Z" fill="white"/>
    <path d="M41.5958 22.7358C41.5958 18.999 38.5559 15.9591 34.8193 15.9591C31.0827 15.9591 28.0426 18.999 28.0426 22.7358C28.0426 26.4722 31.0825 29.5123 34.8193 29.5123C38.5562 29.5121 41.5958 26.4722 41.5958 22.7358ZM31.8424 22.7358C31.8424 21.0944 33.1779 19.7587 34.8196 19.7587C36.4613 19.7587 37.7965 21.0941 37.7965 22.7358C37.7965 24.3775 36.461 25.7128 34.8196 25.7128C33.1781 25.7128 31.8424 24.377 31.8424 22.7358Z" fill="white"/>
    <path d="M40.6966 46.9606C35.7724 46.9606 31.766 50.9668 31.766 55.8914C31.766 60.8158 35.7722 64.8223 40.6966 64.8223C45.6209 64.8223 49.6274 60.8161 49.6274 55.8914C49.6271 50.9668 45.6209 46.9606 40.6966 46.9606ZM40.6966 61.0222C37.8673 61.0222 35.5658 58.7204 35.5658 55.8909C35.5658 53.0615 37.8676 50.7597 40.6966 50.7597C43.5258 50.7597 45.8278 53.0615 45.8278 55.8909C45.8278 58.7204 43.526 61.0222 40.6966 61.0222Z" fill="white"/>
</svg>
