<svg width="56" height="56" viewBox="0 0 56 56" fill="none" xmlns="http://www.w3.org/2000/svg">
    <path opacity="0.5" fill-rule="evenodd" clip-rule="evenodd" d="M33.3172 5.02173C32.4531 4.6665 31.3576 4.6665 29.1667 4.6665C26.9757 4.6665 25.8802 4.6665 25.0161 5.02173C23.8639 5.49537 22.9485 6.40385 22.4713 7.54731C22.2534 8.0693 22.1682 8.67634 22.1348 9.56182C22.0858 10.8631 21.4134 12.0676 20.2771 12.7187C19.1407 13.3698 17.7535 13.3454 16.5935 12.7369C15.8041 12.3229 15.2317 12.0926 14.6673 12.0189C13.4309 11.8573 12.1804 12.1899 11.191 12.9433C10.449 13.5084 9.90125 14.4499 8.80577 16.333C7.7103 18.2161 7.16256 19.1576 7.04048 20.078C6.8777 21.305 7.21276 22.546 7.97194 23.528C8.31846 23.9761 8.80547 24.3529 9.56131 24.8242C10.6725 25.5171 11.3874 26.6975 11.3873 27.9999C11.3873 29.3021 10.6724 30.4823 9.5613 31.1751C8.80534 31.6465 8.31827 32.0233 7.97171 32.4716C7.21253 33.4535 6.87747 34.6945 7.04025 35.9216C7.16233 36.8419 7.71007 37.7834 8.80554 39.6665C9.90102 41.5496 10.4488 42.4911 11.1908 43.0562C12.1802 43.8097 13.4306 44.1422 14.6671 43.9806C15.2315 43.9069 15.8038 43.6767 16.5931 43.2626C17.7532 42.6541 19.1406 42.6298 20.2769 43.2809C21.4133 43.9321 22.0858 45.1366 22.1348 46.438C22.1682 47.3234 22.2535 47.9304 22.4713 48.4524C22.9485 49.5958 23.8639 50.5043 25.0161 50.9779C25.8802 51.3332 26.9757 51.3332 29.1667 51.3332C31.3576 51.3332 32.4531 51.3332 33.3172 50.9779C34.4694 50.5043 35.3848 49.5958 35.862 48.4524C36.0799 47.9304 36.1652 47.3233 36.1985 46.4378C36.2475 45.1365 36.9199 43.9321 38.0561 43.2809C39.1925 42.6297 40.5799 42.654 41.7401 43.2625C42.5293 43.6765 43.1016 43.9067 43.666 43.9805C44.9025 44.142 46.1529 43.8095 47.1423 43.0561C47.8843 42.491 48.4321 41.5494 49.5276 39.6663C50.623 37.7833 51.1708 36.8417 51.2929 35.9214C51.4556 34.6943 51.1206 33.4533 50.3614 32.4714C50.0148 32.0232 49.5278 31.6464 48.7719 31.175C47.6608 30.4822 46.9459 29.3019 46.946 27.9996C46.9461 26.6975 47.6609 25.5174 48.7719 24.8246C49.5279 24.3532 50.015 23.9764 50.3616 23.5281C51.1208 22.5462 51.4559 21.3052 51.2931 20.0781C51.171 19.1578 50.6233 18.2163 49.5278 16.3332C48.4323 14.4501 47.8846 13.5086 47.1425 12.9435C46.1531 12.19 44.9027 11.8575 43.6663 12.019C43.1019 12.0928 42.5295 12.323 41.7402 12.737C40.5801 13.3456 39.1928 13.3699 38.0564 12.7187C36.92 12.0676 36.2476 10.863 36.1985 9.56169C36.1651 8.67628 36.0799 8.06927 35.862 7.54731C35.3848 6.40385 34.4694 5.49537 33.3172 5.02173Z" fill="#F89717"/>
    <path d="M36.2198 28C36.2198 31.866 33.0619 35 29.1665 35C25.271 35 22.1132 31.866 22.1132 28C22.1132 24.134 25.271 21 29.1665 21C33.0619 21 36.2198 24.134 36.2198 28Z" fill="#F89717"/>
</svg>
