<svg width="48" height="48" viewBox="0 0 48 48" fill="none" xmlns="http://www.w3.org/2000/svg">
    <circle cx="23.7378" cy="23.7378" r="23.7378" fill="#FCFCFC"/>
    <path d="M18.3191 13.3286C20.6003 11.0474 21.741 9.90674 23.1583 9.90674C24.5757 9.90674 25.7163 11.0474 27.9975 13.3286L33.8046 19.1356C36.0858 21.4169 37.2264 22.5575 37.2264 23.9748C37.2264 25.3922 36.0858 26.5328 33.8046 28.814C31.5234 31.0953 30.3827 32.2359 28.9654 32.2359C27.548 32.2359 26.4074 31.0953 24.1262 28.814L18.3191 23.007C16.0379 20.7258 14.8973 19.5852 14.8973 18.1678C14.8973 16.7504 16.0379 15.6098 18.3191 13.3286Z" fill="black"/>
    <path d="M17.8989 25.3746L12.04 31.2335C11.59 31.6835 11.365 31.9085 11.2298 32.1426C10.8631 32.7778 10.8631 33.5605 11.2298 34.1957C11.365 34.4298 11.59 34.6548 12.04 35.1048C12.49 35.5548 12.7151 35.7799 12.9492 35.915C13.5844 36.2818 14.367 36.2818 15.0023 35.915C15.2364 35.7799 15.4614 35.5549 15.9114 35.1048L21.7702 29.246L17.8989 25.3746Z" fill="black"/>
    <path d="M19.2928 23.9807L19.2986 23.9749L23.1699 27.8463L23.1641 27.8521L19.2928 23.9807Z" fill="black"/>
    <path d="M34.1744 16.7177C34.5092 16.0931 34.4986 15.3379 34.1428 14.7214C34.0076 14.4874 33.7826 14.2623 33.3326 13.8123C32.8825 13.3623 32.6575 13.1373 32.4234 13.0021C31.807 12.6462 31.0518 12.6357 30.4272 12.9705L34.1744 16.7177Z" fill="black"/>
</svg>
