<svg width="40" height="40" viewBox="0 0 40 40" fill="none" xmlns="http://www.w3.org/2000/svg">
    <path fill-rule="evenodd" clip-rule="evenodd" d="M31.6667 13.3335C31.6667 13.8858 31.219 14.3335 30.6667 14.3335L9.33335 14.3335C8.78107 14.3335 8.33335 13.8858 8.33335 13.3335C8.33335 12.7812 8.78107 12.3335 9.33335 12.3335L30.6667 12.3335C31.219 12.3335 31.6667 12.7812 31.6667 13.3335Z" fill="#B2B2B2"/>
    <path fill-rule="evenodd" clip-rule="evenodd" d="M31.6667 20C31.6667 20.5523 31.219 21 30.6667 21L9.33335 21C8.78107 21 8.33335 20.5523 8.33335 20C8.33335 19.4477 8.78107 19 9.33335 19L30.6667 19C31.219 19 31.6667 19.4477 31.6667 20Z" fill="#B2B2B2"/>
    <path fill-rule="evenodd" clip-rule="evenodd" d="M31.6667 26.6665C31.6667 27.2188 31.219 27.6665 30.6667 27.6665L9.33335 27.6665C8.78107 27.6665 8.33335 27.2188 8.33335 26.6665C8.33335 26.1142 8.78107 25.6665 9.33335 25.6665L30.6667 25.6665C31.219 25.6665 31.6667 26.1142 31.6667 26.6665Z" fill="#B2B2B2"/>
</svg>
