<svg width="48" height="48" viewBox="0 0 48 48" fill="none" xmlns="http://www.w3.org/2000/svg">
    <circle cx="23.7378" cy="23.7378" r="23.7378" fill="#FCFCFC"/>
    <path d="M13.344 13.0785C13.344 11.6613 13.344 10.9527 13.6284 10.4249C13.8147 10.0791 14.0827 9.79196 14.4054 9.59233C14.898 9.2876 15.5594 9.2876 16.8821 9.2876H26.789C28.1117 9.2876 28.7731 9.2876 29.2657 9.59233C29.5884 9.79196 29.8564 10.0791 30.0428 10.4249C30.3272 10.9527 30.3272 11.6613 30.3272 13.0785C30.3272 14.4957 30.3272 15.2043 30.0428 15.7321C29.8564 16.0779 29.5884 16.365 29.2657 16.5647C28.7731 16.8694 28.1117 16.8694 26.789 16.8694H16.8821C15.5594 16.8694 14.898 16.8694 14.4054 16.5647C14.0827 16.365 13.8147 16.0779 13.6284 15.7321C13.344 15.2043 13.344 14.4957 13.344 13.0785Z" fill="black"/>
    <path d="M11.9317 12.228C11.7128 12.4364 11.5749 12.7402 11.5749 13.0786C11.5749 13.417 11.7128 13.7209 11.9317 13.9292C11.9287 13.6793 11.9287 13.4153 11.9287 13.1396V13.0176C11.9287 12.7419 11.9287 12.4779 11.9317 12.228Z" fill="black"/>
    <path d="M19.005 30.5166V36.582C19.005 38.0117 19.005 38.7265 19.4196 39.1706C19.8341 39.6148 20.5012 39.6148 21.8356 39.6148C23.1699 39.6148 23.8371 39.6148 24.2516 39.1706C24.6661 38.7265 24.6661 38.0117 24.6661 36.582V30.5166C24.6661 29.087 24.6661 28.3721 24.2516 27.928C23.8371 27.4839 23.1699 27.4839 21.8356 27.4839C20.5012 27.4839 19.8341 27.4839 19.4196 27.928C19.005 28.3721 19.005 29.087 19.005 30.5166Z" fill="black"/>
    <path d="M31.7343 14.2159H31.8063C32.4497 14.2159 32.8816 14.2165 33.2163 14.2399C33.5421 14.2626 33.7013 14.3035 33.8061 14.3477C34.2628 14.5404 34.6243 14.9277 34.8041 15.417C34.8453 15.5292 34.8835 15.6998 34.9047 16.0489C34.9265 16.4075 34.9271 16.8702 34.9271 17.5597C34.9271 18.8294 34.9121 19.1772 34.8261 19.4382C34.6785 19.8859 34.3794 20.2579 33.9881 20.4807C33.76 20.6106 33.4411 20.6781 32.2692 20.8664L26.4335 21.8043C25.34 21.98 24.422 22.1275 23.6967 22.346C22.9281 22.5775 22.2481 22.9234 21.7173 23.5838C21.175 24.2584 20.9512 25.0663 20.8547 25.9771C21.1437 25.9676 21.4489 25.9677 21.7586 25.9677H21.9126C22.2876 25.9677 22.656 25.9676 22.997 25.9844C23.0678 25.498 23.1773 25.2529 23.3259 25.068C23.4808 24.8753 23.7186 24.7022 24.2714 24.5356C24.8529 24.3604 25.6374 24.2322 26.8146 24.043L32.7527 23.0888C33.6737 22.9416 34.3911 22.827 34.9842 22.4893C35.8452 21.9992 36.5031 21.1806 36.8278 20.1956C37.0515 19.5171 37.0509 18.74 37.0501 17.7424L37.05 17.5231C37.05 16.8796 37.05 16.3424 37.0231 15.9009C36.9952 15.4415 36.9349 15.007 36.7794 14.5838C36.3838 13.5072 35.5885 12.6551 34.5838 12.2313C34.1887 12.0646 33.7832 12.0001 33.3544 11.9702C32.9424 11.9414 32.441 11.9414 31.8404 11.9414H31.7343C31.7425 12.273 31.7425 12.6341 31.7425 13.0177V13.1397C31.7425 13.5233 31.7425 13.8844 31.7343 14.2159Z" fill="black"/>
</svg>
