<svg width="56" height="56" viewBox="0 0 56 56" fill="none" xmlns="http://www.w3.org/2000/svg">
    <path opacity="0.5" d="M4.66663 27.9998C4.66663 15.1132 15.1133 4.6665 28 4.6665C40.8866 4.6665 51.3333 15.1132 51.3333 27.9998C51.3333 40.8865 40.8866 51.3332 28 51.3332C15.1133 51.3332 4.66663 40.8865 4.66663 27.9998Z" fill="#F89717"/>
    <path d="M26.1973 19.9943L21.4956 23.7385C19.5229 25.3094 18.5366 26.0948 18.7291 26.9718L18.7394 27.0152C18.9587 27.8868 20.2089 28.2218 22.7094 28.8918C24.0989 29.2641 24.7937 29.4502 25.1197 29.9769L25.1364 30.0046C25.4508 30.5376 25.2719 31.2052 24.9142 32.5402L24.8207 32.8891C23.8288 36.5906 23.3329 38.4413 24.288 39.039C25.2431 39.6367 26.7627 38.4266 29.802 36.0064L29.802 36.0064L34.5038 32.2622C36.4764 30.6913 37.4627 29.9059 37.2702 29.0289L37.26 28.9855C37.0407 28.1139 35.7904 27.7789 33.2899 27.1089C31.9004 26.7366 31.2057 26.5504 30.8797 26.0238L30.8629 25.9961C30.5486 25.4631 30.7274 24.7955 31.0851 23.4605L31.1787 23.1115C32.1705 19.41 32.6664 17.5593 31.7113 16.9616C30.7562 16.3639 29.2366 17.574 26.1973 19.9943Z" fill="#F89717"/>
</svg>
