<svg width="56" height="56" viewBox="0 0 56 56" fill="none" xmlns="http://www.w3.org/2000/svg">
    <path opacity="0.5" d="M4.66663 27.9998C4.66663 17.0004 4.66663 11.5007 8.08371 8.08359C11.5008 4.6665 17.0005 4.6665 28 4.6665C38.9994 4.6665 44.4991 4.6665 47.9162 8.08359C51.3333 11.5007 51.3333 17.0004 51.3333 27.9998C51.3333 38.9993 51.3333 44.499 47.9162 47.9161C44.4991 51.3332 38.9994 51.3332 28 51.3332C17.0005 51.3332 11.5008 51.3332 8.08371 47.9161C4.66663 44.499 4.66663 38.9993 4.66663 27.9998Z" fill="#F89717"/>
    <path fill-rule="evenodd" clip-rule="evenodd" d="M42 22.8108C42 27.6769 38.0391 31.6216 33.153 31.6216C32.2615 31.6216 30.2315 31.4167 29.2439 30.5971L28.0094 31.8266C27.2836 32.5494 27.4796 32.7622 27.8025 33.1128C27.9372 33.2591 28.094 33.4293 28.2152 33.6706C28.2152 33.6706 29.2439 35.105 28.2152 36.5393C27.5979 37.3589 25.8697 38.5063 23.8946 36.5393L23.4831 36.9491C23.4831 36.9491 24.7175 38.3834 23.6888 39.8177C23.0716 40.6373 21.4256 41.4569 19.9854 40.0226L18.5452 41.4569C17.5577 42.4405 16.3507 41.8667 15.8706 41.4569L14.6362 40.2275C13.484 39.0801 14.1561 37.837 14.6362 37.3589L25.3348 26.704C25.3348 26.704 24.3061 25.0647 24.3061 22.8108C24.3061 17.9447 28.267 14 33.153 14C38.0391 14 42 17.9447 42 22.8108ZM33.1529 25.8841C34.8573 25.8841 36.239 24.5081 36.239 22.8106C36.239 21.1131 34.8573 19.7371 33.1529 19.7371C31.4484 19.7371 30.0667 21.1131 30.0667 22.8106C30.0667 24.5081 31.4484 25.8841 33.1529 25.8841Z" fill="#F89717"/>
</svg>
