<svg width="56" height="56" viewBox="0 0 56 56" fill="none" xmlns="http://www.w3.org/2000/svg">
    <path opacity="0.5" d="M7.88087 11.8588C7 13.1138 7 16.8443 7 24.3054V27.9797C7 41.1352 16.8909 47.5193 23.0966 50.2301C24.78 50.9655 25.6217 51.3332 28 51.3332C30.3783 51.3332 31.22 50.9655 32.9034 50.2301C39.1091 47.5193 49 41.1352 49 27.9797V24.3054C49 16.8443 49 13.1138 48.1191 11.8588C47.2383 10.6038 43.7306 9.40307 36.7152 7.00169L35.3786 6.54418C31.7217 5.2924 29.8932 4.6665 28 4.6665C26.1068 4.6665 24.2783 5.29239 20.6214 6.54418L19.2848 7.00169C12.2694 9.40307 8.76174 10.6038 7.88087 11.8588Z" fill="#F89717"/>
    <path d="M25.3429 19.5146L25.0371 20.0633C24.7011 20.666 24.5331 20.9673 24.2712 21.1661C24.0093 21.3649 23.6832 21.4387 23.0308 21.5863L22.4369 21.7207C20.1412 22.2401 18.9933 22.4999 18.7202 23.378C18.4471 24.2562 19.2297 25.1713 20.7947 27.0014L21.1996 27.4749C21.6444 27.995 21.8667 28.255 21.9668 28.5767C22.0668 28.8984 22.0332 29.2453 21.9659 29.9392L21.9047 30.5709C21.6681 33.0127 21.5498 34.2336 22.2648 34.7764C22.9797 35.3191 24.0545 34.8243 26.2039 33.8346L26.76 33.5785L26.76 33.5785C27.3708 33.2973 27.6762 33.1567 28 33.1567C28.3237 33.1567 28.6291 33.2973 29.2399 33.5785L29.796 33.8346L29.796 33.8346C31.9455 34.8243 33.0202 35.3191 33.7352 34.7764C34.4501 34.2336 34.3318 33.0127 34.0952 30.571L34.034 29.9392L34.034 29.9391C33.9667 29.2453 33.9331 28.8984 34.0332 28.5767C34.1332 28.255 34.3556 27.995 34.8003 27.4749L35.2052 27.0014C36.7703 25.1713 37.5528 24.2562 37.2797 23.378C37.0066 22.4999 35.8588 22.2401 33.5631 21.7207L32.9691 21.5863C32.3168 21.4387 31.9906 21.3649 31.7287 21.1661C31.4668 20.9673 31.2988 20.666 30.9629 20.0633L30.657 19.5146L30.657 19.5146C29.4748 17.3939 28.8837 16.3335 28 16.3335C27.1162 16.3335 26.5251 17.3939 25.3429 19.5146L25.3429 19.5146Z" fill="#F89717"/>
</svg>
