<svg width="56" height="56" viewBox="0 0 56 56" fill="none" xmlns="http://www.w3.org/2000/svg">
    <path d="M43.128 39.1238C41.6432 39.4787 40.0936 39.6667 38.5001 39.6667C27.5464 39.6667 18.6667 30.787 18.6667 19.8333C18.6667 18.7052 18.7609 17.5991 18.9419 16.5225C18.8574 16.6037 18.7702 16.6785 18.6783 16.7482C18.0235 17.2453 17.2081 17.4298 15.5771 17.7988L14.0923 18.1347C8.35308 19.4333 5.48346 20.0826 4.80073 22.2781C4.11801 24.4735 6.07433 26.7612 9.98698 31.3365L10.9992 32.5202C12.1111 33.8204 12.667 34.4704 12.9171 35.2747C13.1672 36.0789 13.0831 36.9463 12.915 38.681L12.762 40.2603C12.1705 46.3647 11.8747 49.417 13.6621 50.7739C15.4495 52.1307 18.1363 50.8936 23.51 48.4194L24.9002 47.7793C26.4272 47.0762 27.1908 46.7247 28.0001 46.7247C28.8094 46.7247 29.5729 47.0762 31.0999 47.7793L32.4902 48.4194C37.8638 50.8936 40.5507 52.1307 42.3381 50.7739C44.1255 49.417 43.8297 46.3647 43.2382 40.2603L43.128 39.1238Z" fill="#F89717"/>
    <path opacity="0.5" d="M21.3574 12.6194L20.5927 13.991C19.7529 15.4977 19.333 16.251 18.6782 16.7481C18.7701 16.6783 18.8573 16.6035 18.9418 16.5223C18.7608 17.599 18.6667 18.7051 18.6667 19.8332C18.6667 30.7868 27.5463 39.6665 38.5 39.6665C40.0935 39.6665 41.6432 39.4786 43.1279 39.1237L43.085 38.6808C42.9169 36.9461 42.8329 36.0787 43.083 35.2745C43.3331 34.4703 43.889 33.8202 45.0008 32.52L46.0131 31.3363C49.9257 26.761 51.8821 24.4733 51.1993 22.2779C50.5166 20.0824 47.647 19.4331 41.9077 18.1346L40.4229 17.7986C38.792 17.4296 37.9766 17.2451 37.3218 16.7481C36.667 16.251 36.2471 15.4977 35.4072 13.9911L34.6426 12.6194C31.6871 7.31746 30.2093 4.6665 28 4.6665C25.7906 4.6665 24.3129 7.31747 21.3574 12.6194Z" fill="#F89717"/>
</svg>
