<svg width="24" height="24" viewBox="0 0 24 24" fill="none" xmlns="http://www.w3.org/2000/svg">
    <path d="M11.9922 0C15.1736 0.00137307 18.16 1.24033 20.4053 3.48828C22.6504 5.73609 23.886 8.72385 23.8848 11.9014C23.8821 18.457 18.5492 23.7913 11.9922 23.7939H11.9873C9.99718 23.7932 8.04154 23.294 6.30469 22.3467L0 24L1.6875 17.8369C0.646842 16.0334 0.0987169 13.9876 0.0996094 11.8916C0.102364 5.33469 5.4373 0.000141738 11.9922 0ZM11.9961 2.00879C6.54391 2.00898 2.10958 6.44273 2.10742 11.8926C2.10666 13.7603 2.62967 15.5796 3.61914 17.1533L3.85352 17.5273L2.85547 21.1748L6.59668 20.1934L6.95703 20.4072C8.4746 21.3078 10.2146 21.7844 11.9883 21.7852H11.9922C17.4403 21.7852 21.8748 17.3508 21.877 11.9004C21.8779 9.25923 20.8506 6.7756 18.9844 4.90723C17.1182 3.03901 14.6361 2.0097 11.9961 2.00879ZM8.35156 6.41016C8.53395 6.41931 8.77928 6.34146 9.02051 6.9209C9.26826 7.51624 9.86226 8.97825 9.93652 9.12695C10.0108 9.27567 10.0599 9.44912 9.96094 9.64746C9.86191 9.8456 9.81261 9.97011 9.66406 10.1436C9.51554 10.317 9.35142 10.5309 9.21777 10.6641C9.06913 10.8121 8.9147 10.9733 9.08789 11.2705C9.26138 11.5682 9.85802 12.5413 10.7412 13.3291C11.8761 14.3413 12.8337 14.655 13.1309 14.8037C13.4277 14.9524 13.6011 14.9276 13.7744 14.7295C13.9478 14.5312 14.5177 13.8619 14.7158 13.5645C14.9138 13.2672 15.1116 13.316 15.3838 13.415C15.6561 13.5142 17.1158 14.2326 17.4141 14.3818C17.7112 14.5306 17.9101 14.6055 17.9844 14.7295C18.0584 14.8541 18.0578 15.449 17.8105 16.1426C17.5626 16.8366 16.3756 17.4704 15.8047 17.5557C15.2929 17.6322 14.6452 17.6636 13.9336 17.4375C13.502 17.3006 12.9482 17.1177 12.2393 16.8115C9.25833 15.5244 7.31165 12.5226 7.16309 12.3242C7.01394 12.1252 5.94938 10.713 5.94922 9.25098C5.94922 7.78856 6.71682 7.06904 6.98926 6.77148C7.26163 6.47398 7.58414 6.39941 7.78223 6.39941C7.98024 6.39942 8.17849 6.40146 8.35156 6.41016Z" fill="#25D366"/>
</svg>
