<svg width="48" height="48" viewBox="0 0 48 48" fill="none" xmlns="http://www.w3.org/2000/svg">
    <circle cx="23.7378" cy="23.7378" r="23.7378" fill="#FCFCFC"/>
    <path d="M29.6833 18.2903L25.7668 15.4816V9.70459C24.1688 10.4429 21.4169 12.8724 22.1374 16.2598C22.2132 17.2625 23.0583 19.8368 22.7008 21.2386C22.2132 23.1094 22.0345 23.1493 19.1147 26.5018L11.4274 34.702C10.4415 35.7247 10.5498 37.2962 11.6603 38.1992C12.7708 39.1021 14.4663 39.0073 15.4468 37.9846L26.8177 25.499C27.9715 24.172 30.095 23.0047 31.9368 22.5457C35.1003 21.6577 37.4404 18.9587 37.4404 15.7559C37.4404 13.1718 35.8208 10.7273 33.6973 9.70459L33.6865 15.3968L29.6833 18.2903Z" fill="black"/>
</svg>
