<svg width="152" height="54" viewBox="0 0 152 54" fill="none" xmlns="http://www.w3.org/2000/svg">
    <path d="M0 27C0 12.0883 11.9442 0 26.678 0H152V34.2586C152 45.1615 143.267 54 132.494 54H26.6781C11.9442 54 0 41.9117 0 27Z" fill="#F89717"/>
    <path d="M26.3813 1.73104H149.665V34.107C149.665 44.1376 141.631 52.2691 131.72 52.2691H26.3813V1.73104Z" fill="#F89717"/>
    <path d="M148.105 34.107V3.31035H27.9418V50.6897H131.72L131.72 52.2691H26.3813V1.73104H149.665V34.107L149.659 34.5758C149.417 44.2339 141.726 52.018 132.183 52.2629L131.72 52.2691L131.72 50.6897C140.769 50.6896 148.105 43.2653 148.105 34.107Z" fill="black"/>
    <path d="M54.8757 13.5773C54.8757 12.4824 55.2409 11.6406 55.9712 11.052C56.7015 10.4498 57.7496 10.1487 59.1155 10.1487C60.495 10.1487 61.5228 10.2924 62.199 10.5798V13.5363C61.3741 13.1804 60.4341 13.0025 59.3793 13.0025C58.8383 13.0025 58.4731 13.0914 58.2838 13.2694C58.0945 13.4336 57.9998 13.6732 57.9998 13.988V14.2959C57.9998 14.6792 58.0606 14.9666 58.1824 15.1582C58.3176 15.3362 58.6016 15.5415 59.0344 15.7742L61.347 17.0882C62.456 17.7041 63.0105 18.628 63.0105 19.8599V21.1328C63.0105 22.2415 62.6048 23.0969 61.7933 23.6992C60.9819 24.2877 59.8391 24.582 58.3649 24.582C56.9043 24.582 55.8021 24.4246 55.0583 24.1098V21.1328C55.9779 21.5297 57.0193 21.7282 58.1824 21.7282C59.3454 21.7282 59.927 21.3928 59.927 20.7222V20.4142C59.927 20.0994 59.8594 19.8667 59.7241 19.7161C59.6024 19.5519 59.3657 19.374 59.0141 19.1823L56.8435 17.9915C55.5316 17.2524 54.8757 16.2122 54.8757 14.8708V13.5773Z" fill="black"/>
    <path d="M70.1807 10.2513H73.2642V24.4793H70.1807V18.8538H67.3812V24.4793H64.2977V10.2513H67.3812V16.1027H70.1807V10.2513Z" fill="black"/>
    <path d="M74.8917 13.6184C74.8917 12.5234 75.2636 11.6748 76.0075 11.0726C76.7648 10.4566 77.9009 10.1487 79.4156 10.1487C80.4164 10.1487 81.2684 10.2445 81.9716 10.4361V13.2694C81.2143 13.0367 80.4637 12.9204 79.7199 12.9204C78.9896 12.9204 78.5162 13.0093 78.2998 13.1873C78.0834 13.3515 77.9752 13.5979 77.9752 13.9264V20.8248C77.9752 21.4818 78.4824 21.8103 79.4967 21.8103C80.5246 21.8103 81.3698 21.7077 82.0325 21.5023V24.274C81.3022 24.4793 80.4164 24.582 79.375 24.582C77.8603 24.582 76.731 24.2809 75.9872 23.6786C75.2569 23.0764 74.8917 22.2278 74.8917 21.1328V13.6184Z" fill="black"/>
    <path d="M89.3378 10.2513H92.4213V24.4793H89.3378V18.8538H86.5383V24.4793H83.4548V10.2513H86.5383V16.1027H89.3378V10.2513Z" fill="black"/>
    <path d="M94.2516 10.2513H101.372V12.9204H97.2946V15.9384H100.824V18.6075H97.2946V21.8103H101.372V24.4793H94.2516V10.2513Z" fill="black"/>
    <path d="M105.833 19.3466V24.4793H102.79V10.2513H107.375C108.484 10.2513 109.349 10.5182 109.971 11.052C110.594 11.5858 110.905 12.366 110.905 13.3926V16.0205C110.905 17.663 110.35 18.6896 109.241 19.1002L111.452 24.4793H108.105L106.218 19.3466H105.833ZM105.833 12.8793V16.9034H107.03C107.341 16.9034 107.557 16.8349 107.679 16.6981C107.801 16.5612 107.862 16.3217 107.862 15.9795V13.6595C107.862 13.3583 107.794 13.153 107.659 13.0435C107.524 12.934 107.314 12.8793 107.03 12.8793H105.833Z" fill="black"/>
    <path d="M120.833 13.5158V14.8503C120.833 16.1779 120.353 16.9923 119.393 17.2935C120.434 17.5398 120.955 18.3611 120.955 19.7572V21.2149C120.955 23.3912 119.805 24.4793 117.506 24.4793H112.577V10.2513H117.384C119.684 10.2513 120.833 11.3395 120.833 13.5158ZM116.877 12.8382H115.62V15.9384H116.877C117.513 15.9384 117.831 15.6441 117.831 15.0556V13.7211C117.831 13.1325 117.513 12.8382 116.877 12.8382ZM117.952 21.0096V19.5519C117.952 18.9633 117.635 18.6691 116.999 18.6691H115.62V21.8924H116.999C117.635 21.8924 117.952 21.5982 117.952 21.0096Z" fill="black"/>
    <path d="M128.586 24.4793L127.998 21.1944H125.218L124.671 24.4793H121.77L124.529 10.2513H128.768L131.487 24.4793H128.586ZM125.644 18.5869H127.551L126.577 13.0846L125.644 18.5869Z" fill="black"/>
    <path d="M138.47 10.2513H141.473V24.4793H138.552C136.55 19.3055 135.394 16.1848 135.083 15.1172C135.367 16.1985 135.509 18.06 135.509 20.7016V24.4793H132.506V10.2513H135.509L137.355 15.0145C138.139 17.0539 138.667 18.6006 138.937 19.6545C138.626 18.3269 138.47 16.3833 138.47 13.8237V10.2513Z" fill="black"/>
    <path d="M63.6394 32.1361V33.4706C63.6394 34.7983 63.1593 35.6127 62.199 35.9138C63.2404 36.1602 63.7611 36.9814 63.7611 38.3776V39.8353C63.7611 42.0116 62.6115 43.0997 60.3124 43.0997H55.3829V28.8717H60.1907C62.4898 28.8717 63.6394 29.9598 63.6394 32.1361ZM59.6835 31.4586H58.4258V34.5588H59.6835C60.3192 34.5588 60.637 34.2645 60.637 33.6759V32.3414C60.637 31.7529 60.3192 31.4586 59.6835 31.4586ZM60.7587 39.63V38.1722C60.7587 37.5837 60.4409 37.2894 59.8053 37.2894H58.4258V40.5128H59.8053C60.4409 40.5128 60.7587 40.2185 60.7587 39.63Z" fill="black"/>
    <path d="M72.4063 43.0997L71.818 39.8147H69.0388L68.4911 43.0997H65.5902L68.3491 28.8717H72.5889L75.3073 43.0997H72.4063ZM69.4648 37.2073H71.3718L70.398 31.705L69.4648 37.2073Z" fill="black"/>
    <path d="M82.6156 28.8717H85.6585V39.63C85.6585 40.7523 85.3001 41.6488 84.5833 42.3195C83.8801 42.9765 82.832 43.305 81.439 43.305C80.0595 43.305 79.0114 42.9765 78.2946 42.3195C77.5913 41.6625 77.2397 40.766 77.2397 39.63V28.8717H80.2827V39.4657C80.2827 40.1501 80.6681 40.4923 81.439 40.4923C82.2234 40.4923 82.6156 40.1501 82.6156 39.4657V28.8717Z" fill="black"/>
    <path d="M105.629 35.974C105.629 40.241 102.211 43.7 97.9949 43.7C93.7788 43.7 90.361 40.241 90.361 35.974C90.361 31.707 93.7788 28.248 97.9949 28.248C102.211 28.248 105.629 31.707 105.629 35.974Z" fill="#FCFCFC"/>
    <path d="M94.6523 32.5048C94.6523 32.0436 94.6523 31.8129 94.7438 31.6412C94.8037 31.5286 94.8899 31.4352 94.9937 31.3702C95.1521 31.271 95.3648 31.271 95.7902 31.271H98.9762C99.4016 31.271 99.6142 31.271 99.7727 31.3702C99.8765 31.4352 99.9626 31.5286 100.023 31.6412C100.114 31.8129 100.114 32.0436 100.114 32.5048C100.114 32.9661 100.114 33.1967 100.023 33.3685C99.9626 33.4811 99.8765 33.5745 99.7727 33.6395C99.6142 33.7387 99.4016 33.7387 98.9762 33.7387H95.7902C95.3648 33.7387 95.1521 33.7387 94.9937 33.6395C94.8899 33.5745 94.8037 33.4811 94.7438 33.3685C94.6523 33.1967 94.6523 32.9661 94.6523 32.5048Z" fill="black"/>
    <path d="M94.1982 32.228C94.1278 32.2958 94.0834 32.3947 94.0834 32.5048C94.0834 32.615 94.1278 32.7139 94.1982 32.7817C94.1972 32.7004 94.1972 32.6144 94.1972 32.5247V32.485C94.1972 32.3953 94.1972 32.3093 94.1982 32.228Z" fill="black"/>
    <path d="M96.4729 38.1805V40.1546C96.4729 40.62 96.4729 40.8526 96.6062 40.9972C96.7395 41.1417 96.9541 41.1417 97.3832 41.1417C97.8123 41.1417 98.0269 41.1417 98.1602 40.9972C98.2935 40.8526 98.2935 40.62 98.2935 40.1546V38.1805C98.2935 37.7152 98.2935 37.4825 98.1602 37.338C98.0269 37.1934 97.8123 37.1934 97.3832 37.1934C96.9541 37.1934 96.7395 37.1934 96.6062 37.338C96.4729 37.4825 96.4729 37.7152 96.4729 38.1805Z" fill="black"/>
    <path d="M100.567 32.875H100.59C100.797 32.875 100.936 32.8752 101.043 32.8828C101.148 32.8902 101.199 32.9035 101.233 32.9179C101.38 32.9806 101.496 33.1066 101.554 33.2659C101.567 33.3024 101.579 33.358 101.586 33.4716C101.593 33.5883 101.593 33.7389 101.593 33.9633C101.593 34.3765 101.588 34.4898 101.561 34.5747C101.513 34.7204 101.417 34.8415 101.291 34.914C101.218 34.9563 101.115 34.9782 100.739 35.0395L98.8619 35.3448C98.5102 35.402 98.215 35.45 97.9817 35.5211C97.7345 35.5965 97.5158 35.709 97.3451 35.924C97.1708 36.1436 97.0988 36.4065 97.0678 36.7029C97.1607 36.6999 97.2588 36.6999 97.3584 36.6999H97.408C97.5286 36.6999 97.647 36.6998 97.7567 36.7053C97.7795 36.547 97.8147 36.4672 97.8625 36.4071C97.9123 36.3443 97.9887 36.288 98.1665 36.2338C98.3535 36.1768 98.6058 36.135 98.9844 36.0735L100.894 35.7629C101.19 35.715 101.421 35.6777 101.612 35.5678C101.889 35.4082 102.1 35.1418 102.205 34.8212C102.277 34.6004 102.276 34.3475 102.276 34.0228L102.276 33.9514C102.276 33.742 102.276 33.5671 102.267 33.4234C102.258 33.2739 102.239 33.1325 102.189 32.9947C102.062 32.6443 101.806 32.367 101.483 32.229C101.356 32.1748 101.225 32.1538 101.088 32.1441C100.955 32.1347 100.794 32.1347 100.601 32.1347H100.567C100.569 32.2426 100.569 32.3601 100.569 32.485V32.5247C100.569 32.6496 100.569 32.7671 100.567 32.875Z" fill="black"/>
    <path d="M124.018 35.974C124.018 40.241 120.6 43.7 116.384 43.7C112.168 43.7 108.75 40.241 108.75 35.974C108.75 31.707 112.168 28.248 116.384 28.248C120.6 28.248 124.018 31.707 124.018 35.974Z" fill="#FCFCFC"/>
    <path d="M118.296 34.201L117.036 33.2869V31.4066C116.522 31.6469 115.637 32.4376 115.869 33.5401C115.893 33.8665 116.165 34.7043 116.05 35.1606C115.893 35.7695 115.836 35.7825 114.897 36.8736L112.425 39.5426C112.108 39.8755 112.143 40.3869 112.5 40.6808C112.857 40.9747 113.402 40.9439 113.717 40.611L117.374 36.5473C117.745 36.1154 118.428 35.7354 119.02 35.586C120.038 35.297 120.79 34.4186 120.79 33.3761C120.79 32.5351 120.27 31.7394 119.587 31.4066L119.583 33.2593L118.296 34.201Z" fill="black"/>
    <path d="M142.406 35.974C142.406 40.241 138.989 43.7 134.772 43.7C130.556 43.7 127.139 40.241 127.139 35.974C127.139 31.707 130.556 28.248 134.772 28.248C138.989 28.248 142.406 31.707 142.406 35.974Z" fill="#FCFCFC"/>
    <path d="M133.03 32.5861C133.763 31.8436 134.13 31.4724 134.586 31.4724C135.042 31.4724 135.409 31.8436 136.142 32.5861L138.01 34.4762C138.744 35.2186 139.11 35.5899 139.11 36.0512C139.11 36.5125 138.744 36.8838 138.01 37.6262C137.276 38.3687 136.909 38.74 136.454 38.74C135.998 38.74 135.631 38.3687 134.897 37.6262L133.03 35.7362C132.296 34.9937 131.929 34.6225 131.929 34.1611C131.929 33.6998 132.296 33.3286 133.03 32.5861Z" fill="black"/>
    <path d="M132.895 36.5068L131.011 38.4137C130.866 38.5601 130.793 38.6334 130.75 38.7096C130.632 38.9163 130.632 39.171 130.75 39.3778C130.793 39.454 130.866 39.5272 131.011 39.6737C131.155 39.8202 131.228 39.8934 131.303 39.9374C131.507 40.0568 131.759 40.0568 131.963 39.9374C132.038 39.8934 132.111 39.8202 132.256 39.6737L134.14 37.7668L132.895 36.5068Z" fill="black"/>
    <path d="M133.343 36.0531L133.345 36.0512L134.59 37.3112L134.588 37.3131L133.343 36.0531Z" fill="black"/>
    <path d="M138.129 33.6892C138.236 33.4858 138.233 33.24 138.119 33.0394C138.075 32.9632 138.003 32.89 137.858 32.7435C137.713 32.597 137.641 32.5238 137.566 32.4798C137.367 32.364 137.125 32.3606 136.924 32.4695L138.129 33.6892Z" fill="black"/>
    <path d="M52.1292 27C52.1292 40.9557 40.9508 52.2691 27.1615 52.2691C13.3723 52.2691 2.19385 40.9557 2.19385 27C2.19385 13.0444 13.3723 1.73104 27.1615 1.73104C40.9508 1.73104 52.1292 13.0444 52.1292 27Z" fill="black"/>
    <path d="M36.2101 6.59499L38.0849 9.62764L39.2553 13.1811V15.3011C39.2553 15.3011 38.9118 16.0072 38.5093 16.4577C37.9155 17.1222 37.3971 17.9048 35.0718 16.2238C32.7464 14.5428 28.8901 12.0845 24.6259 12.0845C21.2121 12.0845 17.9031 14.0729 15.4641 15.8879L16.2476 10.8767C16.2476 10.8767 16.9098 9.36995 17.4086 8.44315C17.8335 7.6536 20.4346 6.02324 21.011 5.6118C21.5874 5.20035 24.8208 4.49487 24.8208 4.49487L27.5921 4.27968L31.29 4.75543L36.2101 6.59499Z" fill="#F89717"/>
    <path d="M37.0868 35.4297C37.1149 38.6331 36.933 41.4436 34.6769 43.9063C32.9575 45.6206 30.3485 46.9377 27.8886 46.9464L27.5799 46.9346C27.2888 46.0512 27.3271 44.7633 27.7255 43.9229C28.3085 42.9645 29.0997 42.5074 30.0589 41.9867C32.0483 40.9033 33.9516 39.5653 35.345 37.7342C35.388 37.6784 35.431 37.6226 35.4752 37.5651C36.0047 36.8712 36.513 36.1591 36.9936 35.4297H37.0868Z" fill="#FCFCFC"/>
    <path d="M17.9797 36.1841C18.5694 36.9309 18.7643 37.9229 19.0224 38.8246C19.5277 40.5638 20.0776 42.2912 20.7853 43.9582L20.8691 44.1999L20.7759 44.3885C18.9722 42.7189 18.0997 40.6053 17.9797 38.1645C17.9624 37.5043 17.968 36.8444 17.9797 36.1841Z" fill="#FCFCFC"/>
    <path fill-rule="evenodd" clip-rule="evenodd" d="M23.5942 16.0675C25.709 15.3203 28.352 15.8451 30.3993 16.5692C30.5024 16.6054 30.6055 16.6416 30.7117 16.6789C31.5646 16.9851 32.3923 17.3391 33.2154 17.7191C33.4797 17.841 33.745 17.96 34.011 18.078C34.13 18.1334 34.13 18.1335 34.2513 18.1899C35.0168 18.5148 35.776 18.518 36.5917 18.526C36.7307 18.5286 36.8697 18.5315 37.0087 18.5344C37.3454 18.5413 37.6821 18.5461 38.0189 18.5496C38.2491 19.1657 38.3671 19.7593 38.4441 20.412C38.4671 20.5945 38.4902 20.777 38.5133 20.9594L38.5463 21.2249C38.6094 21.7177 38.6867 22.2083 38.7645 22.6989L38.8843 22.5257C38.9994 22.3593 39.1149 22.193 39.2305 22.027C39.3511 21.8516 39.4697 21.6748 39.5859 21.4965C40.1409 20.6542 40.6243 20.4375 40.6286 20.4356C40.6286 20.4356 40.9729 20.4358 41.281 20.5299C41.7471 21.0014 41.6909 21.6298 41.6971 22.2531C41.682 23.2591 41.4129 24.1994 41.162 25.1667C40.8854 26.2638 40.7701 27.3646 40.7134 28.4942C40.667 29.2275 40.5351 29.9845 40.0111 30.5319C39.7056 30.784 39.5587 30.8204 39.1723 30.8148L38.9414 30.8122L38.7645 30.8089C38.6231 30.5228 38.6579 30.2265 38.6596 29.913L38.6586 29.7159C38.6597 29.4415 38.747 29.2529 38.7645 29.0171C38.8577 28.6871 38.8997 28.5496 38.9043 28.357C38.9469 27.7267 38.993 27.4861 39.4169 27.0368C39.8359 26.5422 40.0219 26.1135 40.0068 25.4484C39.9328 24.9564 39.6863 24.5223 39.4169 24.1134L38.7645 24.2077L38.8053 24.5459C38.8228 24.6964 38.8403 24.847 38.8577 24.9975L38.8847 25.2189C38.9894 26.1346 38.9609 26.9354 38.747 27.8325C38.5325 28.7731 38.3526 29.7166 38.1937 30.6685C38.0249 31.6371 37.7523 32.5549 37.3082 33.4317C37.2764 33.4948 37.2445 33.558 37.2118 33.6231C36.5559 34.8934 35.7132 35.981 34.7567 37.0329L34.5357 37.2771C32.6684 39.2495 29.9309 40.77 27.2069 40.8326C24.5461 40.8536 22.4384 39.5277 20.4962 37.7873L20.257 37.5803C19.7961 37.1778 19.3937 36.7518 19.005 36.2784L18.8076 36.0501C17.471 34.4684 16.7089 32.6707 16.3952 30.6203L16.1156 30.8089C16.1115 30.8098 15.699 30.903 15.4632 30.8089C15.1246 30.6738 14.988 30.4128 14.9039 30.0545C14.8609 29.8711 14.8916 29.7328 14.8908 29.5719C14.867 27.9636 14.6706 26.4411 14.3447 24.8678C14.3271 24.7818 14.3096 24.6957 14.2915 24.6071C14.1583 24.302 14.1583 24.2077 14.0651 23.9248C13.9718 23.6418 13.392 21.9709 13.9832 20.9952C14.0651 20.86 14.2049 20.6714 14.3447 20.6242C14.6431 20.5236 14.8636 20.7279 15.0787 20.9602C15.5097 21.4258 15.7587 22.23 16.0224 22.8875C16.2081 22.1231 16.308 21.3508 16.4069 20.5712C16.4239 20.4388 16.441 20.3063 16.4582 20.1739C16.4997 19.8525 16.5408 19.5311 16.5816 19.2097C16.6777 19.1977 16.7739 19.1857 16.8729 19.1734C17.0002 19.157 17.1275 19.1406 17.2548 19.1242C17.318 19.1164 17.3813 19.1086 17.4464 19.1005C18.3376 18.9843 18.9736 18.5545 19.7175 18.0774C20.8626 17.3433 22.0288 16.6932 23.2924 16.192L23.5942 16.0675ZM28.0925 35.3354C27.6109 35.3983 26.3122 35.4863 24.9701 35.3354C25.2187 35.5712 25.8835 36.0427 26.5546 36.0427C27.2257 36.0427 27.8595 35.5712 28.0925 35.3354ZM23.1526 33.5948C22.9041 33.469 22.3977 33.227 22.3604 33.2647C22.3229 33.3026 21.972 33.752 21.8011 33.972C22.0808 34.0191 25.6691 34.3963 26.4148 34.3964C27.1604 34.3964 31.2608 34.1135 31.2615 34.0191C31.2614 33.9248 30.9352 33.359 30.5624 33.4062C30.1896 33.4533 29.8634 33.6891 29.211 33.7362C28.5585 33.7834 27.9527 33.5005 27.5333 33.5005C27.1138 33.5005 26.6944 33.7834 26.4148 33.7834C26.1352 33.7834 25.8089 33.4062 24.9235 33.5948C24.2152 33.7457 23.4477 33.6577 23.1526 33.5948ZM20.9623 20.5947C20.5216 20.5779 20.1616 20.5743 19.767 20.7918C19.2136 21.1837 18.7841 21.6385 18.6321 22.3217C18.8185 22.3217 18.8186 22.3216 18.9846 22.24C19.6887 21.8897 20.3701 21.8988 21.135 21.916C21.2778 21.9193 21.4207 21.9218 21.5635 21.9237C21.9845 21.9282 22.0792 21.9822 22.5002 21.9916C22.2508 22.0619 22.3137 22.062 22.2872 22.062C21.1383 22.1298 20.1404 22.2308 19.2846 23.0761V23.4533C19.7515 23.7367 20.0607 23.7639 20.5894 23.7362C20.5506 23.4181 20.5506 23.418 20.5894 23.0761C20.8106 22.8867 20.8106 22.8866 21.0555 22.7932C21.0264 22.9935 21.0264 22.9936 21.0555 23.2647C21.2085 23.5163 21.297 23.658 21.5215 23.8305C21.8662 23.9514 22.1752 23.9496 22.5293 23.8541C22.8633 23.661 22.988 23.5007 23.1701 23.1527L23.2924 22.8875L23.4788 23.0761C23.5691 23.235 23.6624 23.3922 23.7584 23.5476L24.038 23.7362L23.572 24.2077C23.339 24.4434 23.2924 24.5849 23.1992 24.7264L24.7371 24.0427C24.6939 24.458 24.6012 25.401 24.4775 25.8013L24.4109 25.9995C24.1726 26.72 23.9033 27.3304 23.4584 27.9433L23.2924 28.1684C22.7958 28.8504 22.609 29.3892 22.7332 30.2431C22.9566 30.9338 23.4145 31.4899 24.0031 31.8993C24.604 32.2368 25.2765 32.2275 25.9378 32.0794L26.0886 32.0348L26.1818 32.5063H26.3682C26.4925 32.3297 26.6099 32.1479 26.7235 31.9641C27.0262 31.4736 27.2918 31.1143 27.8333 30.8947C28.1787 30.7882 28.4474 30.6928 28.6896 30.5189C28.5457 30.4024 28.4017 30.2859 28.2538 30.1662C28.1595 30.186 28.0628 30.2142 27.9603 30.2538C27.6797 30.3841 27.4034 30.5116 27.1138 30.6203C26.731 30.669 26.3469 30.7038 25.9954 30.526C25.5393 30.1781 25.1693 29.9345 24.5973 29.8364C24.4418 29.8161 24.2863 29.7948 24.1313 29.7716C24.0176 29.6772 24.0175 29.6772 24.0257 29.489L24.0264 29.2588C24.0259 29.1153 24.0292 28.9717 24.038 28.8285C24.1185 28.6311 24.1185 28.631 24.2904 28.5176C24.4923 28.3766 24.6861 28.2302 24.8769 28.0741C25.6856 27.1453 25.7202 25.4935 25.7373 24.3039L25.739 24.0427C25.7471 23.2807 25.6646 22.578 25.4427 21.8479L25.3546 21.6262C25.2679 21.4 25.2679 21.4 25.1565 21.19C24.958 20.9449 24.849 20.8262 24.5378 20.7629L24.2605 20.7587L23.9545 20.7507C23.7433 20.7489 23.5321 20.746 23.321 20.7419L23.0139 20.7351C22.7041 20.7287 22.4135 20.7131 22.1059 20.6714C21.7943 20.6232 21.494 20.6037 21.1793 20.5975L20.9623 20.5947ZM29.3508 28.1684C29.7183 29.2958 30.5217 29.9794 31.4013 30.7146C31.3692 30.5065 31.3692 30.5064 31.3081 30.2431C30.8896 29.3433 30.2138 28.4724 29.3508 27.9798V28.1684ZM15.8251 23.4534C15.4434 23.8528 15.1681 24.3459 14.9862 24.8679C14.9227 25.4141 14.9272 25.9038 15.1905 26.3956C15.4793 26.926 15.6084 27.2803 15.5454 27.8856C15.4522 28.1685 15.4522 28.1685 15.4399 28.3925L15.4406 28.64C15.439 29.1721 15.5514 29.4736 15.9183 29.866H16.2911C16.3109 27.7163 16.1831 25.5955 16.0115 23.4534H15.8251ZM14.2406 21.5673C14.2053 22.1555 14.2469 22.7229 14.3315 23.3046C14.3442 23.3872 14.3564 23.4675 14.3687 23.5477C14.3808 23.629 14.3926 23.7079 14.4043 23.7868C14.4167 23.8638 14.4288 23.9386 14.4408 24.0133C14.4885 24.3109 14.5327 24.4155 14.7066 24.6793C14.7816 24.11 14.8823 23.5465 14.9862 22.9819C15.2271 23.1688 15.456 23.3238 15.7318 23.4534C15.7318 23.1577 15.7318 23.1577 15.3601 22.619L15.1435 22.3159C14.8724 21.9317 14.6965 21.6988 14.2406 21.5673ZM33.6382 20.6242C32.7521 19.9728 31.4823 20.1785 30.4667 20.4039C29.8526 20.5423 29.2472 20.6576 28.6226 20.7303C28.3739 20.7574 28.0406 20.7239 27.8595 20.9071C27.8145 21.2257 27.7866 21.4663 27.9811 21.7356C28.3431 22.1483 28.4808 22.1383 28.5119 22.6989C28.5145 22.8915 28.3255 23.2054 28.1857 23.4533C28.9779 23.7833 29.5372 24.1134 30.842 24.6792C30.7023 24.5378 30.5682 24.3963 30.2886 24.1134L29.5838 23.5947L30.0822 23.2054L30.2886 23.023C30.4109 22.915 30.4693 22.8403 30.6556 22.8403C30.6556 23.2038 30.6549 23.1648 30.842 23.4533C31.1129 23.7352 31.2496 23.8243 31.6401 23.8659C32.0281 23.823 32.233 23.7579 32.4921 23.4584L32.6362 23.2529L32.7833 23.0459L32.8926 22.8875C32.9876 22.9516 33.5458 23.2967 33.6382 23.359L34.6635 23.5476C34.6634 23.4834 34.4194 23.1232 34.3372 23.0289C33.4409 22.0005 33.4875 22.0476 30.9138 21.8615L30.7488 21.8501C31.4141 21.6042 32.0312 21.4495 32.7379 21.4372L32.9683 21.4376C33.5021 21.4367 33.9908 21.4943 34.5101 21.6216L34.6635 21.6615C34.472 21.2469 34.2243 21.0523 33.8625 20.783L33.6382 20.6242Z" fill="#FCFCFC"/>
    <path d="M17.1409 36.3728L16.9275 36.4287C15.9348 36.7016 14.9759 37.0553 14.0126 37.4187C13.822 37.4906 13.631 37.5615 13.4399 37.6322C13.0787 37.7693 12.7221 37.9177 12.3652 38.0658C12.1782 38.143 11.9913 38.2202 11.8043 38.2973C11.6756 38.3506 11.5469 38.4042 11.4185 38.4581C11.2314 38.5364 11.044 38.6136 10.8564 38.6905C10.7455 38.7366 10.6345 38.7827 10.5203 38.8302C10.2661 38.9117 10.2455 38.9182 10.0268 38.8455C10.0073 38.8391 9.98643 38.8322 9.96403 38.8246C10.0838 38.7432 10.2044 38.6628 10.3252 38.583L10.5284 38.447L10.7097 38.3531C10.7138 38.3552 10.7179 38.3572 10.722 38.3593C11.1373 38.1251 11.5637 37.9127 11.9943 37.7008C12.1966 37.6009 12.3981 37.4994 12.5996 37.3979C16.1783 35.6184 16.1784 35.6183 17.1409 35.6183V36.3728Z" fill="#FCFCFC"/>
    <path d="M15.2767 18.5496C15.1732 19.3619 15.1212 19.9587 15.1207 19.9641C15.1194 19.961 14.9401 19.5397 14.8606 19.2568C14.7848 18.987 14.718 18.5529 14.7175 18.5496H15.2767Z" fill="#FCFCFC"/>
    <path fill-rule="evenodd" clip-rule="evenodd" d="M24.3443 4.27596C26.8989 3.88257 29.3533 4.20555 31.8673 4.68706C32.0146 4.71496 32.0147 4.71496 32.1649 4.74342C35.3554 5.37534 38.5685 7.03896 41.0648 9.12702C41.2087 9.24738 41.3549 9.36508 41.5031 9.47992C42.768 10.4759 43.9603 11.683 44.9161 12.9857C44.9609 13.0458 45.0058 13.1059 45.052 13.1678C47.9461 17.0558 49.5362 21.5103 49.7627 26.3767L49.7831 26.7524C49.8311 28.5063 49.553 30.3195 49.2035 32.0348L49.1358 32.4017C48.778 34.2162 48.0264 35.9793 47.153 37.5987C47.12 37.6611 47.087 37.7235 47.053 37.7878C46.4122 38.996 45.6788 40.1169 44.8229 41.1822L44.6135 41.447C43.5802 42.732 42.4087 43.9624 41.0946 44.9543C41.0361 44.9993 40.9776 45.0443 40.9173 45.0907C38.7621 46.7429 36.4036 47.9949 33.8246 48.8207C33.7186 48.8548 33.7186 48.8548 33.6104 48.8896C28.7346 50.4383 23.1217 50.2396 18.4457 48.0663C18.3703 48.0317 18.2949 47.9971 18.2172 47.9614C16.5309 47.1832 14.9609 46.3094 13.5058 45.1429L13.2732 44.9624C12.6003 44.433 11.9782 43.8517 11.3621 43.2568L11.1973 43.0983C10.448 42.3729 9.76844 41.6218 9.15085 40.7785C9.0355 40.6212 8.91822 40.4653 8.80079 40.3095C5.29656 35.5824 3.95449 29.3969 4.76201 23.583C4.92261 22.5132 5.19313 21.4739 5.49017 20.4356C5.51116 20.3615 5.53217 20.2874 5.5538 20.2111C6.31206 17.5901 7.64725 15.2143 9.3116 13.08L9.51803 12.8104C10.5268 11.5087 11.6583 10.3268 12.9466 9.30789C13.0637 9.21275 13.1808 9.11757 13.2979 9.0224C15.3497 7.374 17.7251 6.07996 20.2166 5.25288C20.286 5.22936 20.3555 5.20583 20.427 5.1816C21.6435 4.77393 22.8651 4.5045 24.1313 4.30985C24.2015 4.29867 24.2719 4.28748 24.3443 4.27596ZM30.4079 4.75945C25.9554 3.81869 20.9378 4.86129 17.7157 8.25693C16.6474 9.4992 16.3196 11.1806 16.0799 12.7685C16.0514 12.9573 16.0216 13.1458 15.9916 13.3344C15.8829 14.0341 15.7942 14.7311 15.7428 15.4376C16.0731 15.31 16.3562 15.1612 16.6521 14.9641C18.2602 13.8941 20.019 12.9003 21.8943 12.4199L22.2438 12.3245C23.9775 11.9337 26.2554 11.8903 27.9527 12.4199C28.0327 12.4447 28.1127 12.4696 28.1951 12.4952C30.4173 13.2034 32.4136 14.2281 34.2906 15.6262L34.0267 15.491C33.6185 15.2827 33.2091 15.0768 32.7994 14.8717C32.7291 14.8365 32.6588 14.8013 32.5865 14.7649C30.9465 13.946 29.2887 13.2409 27.4866 12.8914L27.187 12.8273C25.5761 12.5331 23.7535 12.5466 22.1739 12.9857C22.1123 13.0024 22.0507 13.0192 21.9873 13.0364C20.144 13.5519 18.3624 14.4712 16.768 15.5319L16.5927 15.6476C15.7509 16.2076 14.9494 16.8137 14.1607 17.4479C13.8289 17.7139 13.505 17.9645 13.133 18.1723C13.0882 17.8821 13.0882 17.882 13.133 17.5122C13.3384 17.2563 13.5886 17.071 13.8495 16.8757L14.0532 16.7147C14.3197 16.5064 14.5676 16.3137 14.8723 16.1665C15.1151 16.018 15.1151 16.018 15.1786 15.7257C15.1927 15.6134 15.2069 15.501 15.2214 15.3853C15.2298 15.324 15.2382 15.2628 15.2469 15.1997C15.2648 15.0684 15.2818 14.937 15.2979 14.8054C15.3406 14.461 15.3905 14.1175 15.4399 13.774C15.4495 13.7059 15.4591 13.6377 15.4691 13.5675C15.704 11.9332 16.1014 10.2843 16.9417 8.8559C17.069 8.64489 17.069 8.64485 17.0476 8.36486C17.0184 8.44312 17.0184 8.44312 17.0184 8.44312C17.2622 8.24317 16.7863 8.54112 17.0476 8.36486C16.9311 8.43876 16.8149 8.51306 16.6993 8.5878C15.1595 9.58324 13.7075 10.6588 12.3874 11.9484L12.1624 12.1646C11.632 12.6855 11.1672 13.2478 10.7097 13.8344L10.4858 14.1133C9.82895 14.9479 9.27912 15.8344 8.75236 16.7578C8.71499 16.8229 8.67764 16.8881 8.63913 16.9552C6.81976 20.1633 6.1257 23.6598 6.11349 27.3197C6.11324 27.3909 6.11301 27.4622 6.11276 27.5357C6.11232 28.732 6.21301 29.8749 6.46528 31.0468C6.51085 31.2591 6.55142 31.4716 6.59044 31.6852C7.30956 35.3897 9.35871 38.8624 11.9213 41.5594C11.9744 41.6156 12.0274 41.6719 12.082 41.7298C12.829 42.5179 13.5957 43.2429 14.4644 43.8917C14.623 44.0103 14.78 44.1308 14.9371 44.2514C15.7796 44.889 16.678 45.4005 17.6069 45.8973L17.7939 45.9997C21.8637 48.2248 26.706 48.8148 31.2149 47.8777C31.3093 47.8585 31.4037 47.8393 31.5009 47.8195C34.2986 47.2311 37.0138 45.9978 39.3237 44.2942C39.3758 44.2561 39.4279 44.218 39.4815 44.1787C40.2526 43.609 40.9653 42.9828 41.6539 42.3138C41.7064 42.2632 41.759 42.2127 41.8131 42.1606C42.6152 41.3846 43.3191 40.5714 43.984 39.6733L44.1715 39.4328L44.3277 39.2313L44.4569 39.0652C44.5371 38.95 44.5588 38.9186 44.5555 38.8058C44.5514 38.8121 44.5474 38.8184 44.5432 38.8246V38.636C44.4219 38.6193 44.4219 38.6193 44.2981 38.6022C43.9856 38.542 43.7259 38.4509 43.4324 38.3281C43.2708 38.2613 43.2708 38.2613 43.1059 38.1931C43.0488 38.1693 42.9917 38.1454 42.9328 38.1209C41.7584 37.6309 40.5737 37.1715 39.382 36.7264L39.1604 36.6436C38.749 36.49 38.3374 36.3368 37.9257 36.1841V35.4297C38.5074 35.6191 39.0773 35.8295 39.6441 36.0604L39.8882 36.1596C41.5488 36.8406 43.2133 37.5681 44.7296 38.5417C45.2672 37.8347 45.6587 37.0851 46.0363 36.284C46.1244 36.0971 46.2139 35.9109 46.3036 35.7248C48.1083 31.9446 48.7071 27.3911 47.8986 23.2647C47.8723 23.1279 47.8724 23.1278 47.8456 22.9882C47.2665 20.0743 46.0901 17.2774 44.3568 14.8717C44.3192 14.8191 44.2815 14.7665 44.2427 14.7122C43.7471 14.0256 43.2097 13.3894 42.6347 12.7698C42.4392 12.5573 42.2522 12.3413 42.0675 12.1193C40.9194 10.7918 39.4037 9.75357 37.9257 8.83638C37.9257 9.15881 38.0155 9.25792 38.1922 9.51344C38.3987 9.84691 38.5301 10.2156 38.6713 10.581C38.7039 10.665 38.7366 10.7492 38.7702 10.8358C39.0287 11.5117 39.253 12.1851 39.4169 12.8914C39.4318 12.9544 39.4466 13.0174 39.4619 13.0823C39.7375 14.2863 39.8713 15.5071 39.9995 16.7342C40.0078 16.8129 40.0161 16.8917 40.0246 16.9727C40.0484 17.2011 40.0714 17.4296 40.0941 17.6581C40.1011 17.7258 40.1081 17.7936 40.1153 17.8634C40.1615 18.3453 40.1681 18.8197 40.1626 19.304C39.6638 18.5469 39.4918 17.9039 39.4235 17.0042C39.4088 16.8302 39.3941 16.6561 39.3794 16.4821C39.3574 16.2124 39.3358 15.9427 39.3145 15.673C39.0685 12.5825 38.4647 9.4049 36.059 7.25718C34.9403 6.3127 33.5873 5.77418 32.2401 5.25288C32.1673 5.22182 32.0944 5.19076 32.0194 5.15876C31.5915 4.99398 31.1438 4.91638 30.6964 4.82262L30.4079 4.75945Z" fill="#FCFCFC"/>
    <path d="M23.919 7.72095C23.9244 7.39013 24.0427 7.13772 24.2739 6.9637C24.5051 6.78554 24.8343 6.70001 25.2613 6.7071C25.6925 6.71426 26.0132 6.76301 26.2231 6.85336L26.2087 7.74655C25.9525 7.63476 25.6595 7.57612 25.3298 7.57065C25.1606 7.56784 25.046 7.59282 24.986 7.64559C24.926 7.69423 24.8952 7.76611 24.8937 7.86122L24.8922 7.95426C24.8903 8.07004 24.9079 8.1572 24.945 8.21572C24.9864 8.27018 25.0742 8.33368 25.2084 8.40622L25.9249 8.8152C26.2686 9.00704 26.4374 9.28904 26.4314 9.66121L26.4251 10.0458C26.4197 10.3807 26.2887 10.6371 26.0321 10.8148C25.7755 10.9884 25.4168 11.0714 24.956 11.0637C24.4993 11.0561 24.1555 11.0029 23.9245 10.9039L23.9391 10.0045C24.2247 10.1292 24.5492 10.1946 24.9129 10.2006C25.2765 10.2066 25.4599 10.1083 25.4632 9.90572L25.4647 9.81268C25.4662 9.71757 25.4462 9.64692 25.4047 9.60073C25.3674 9.55048 25.2943 9.49549 25.1853 9.43577L24.5126 9.06475C24.1061 8.83464 23.9061 8.51696 23.9127 8.11172L23.919 7.72095Z" fill="black"/>
    <path d="M29.2813 7.89063L29.2747 8.29381C29.2682 8.69492 29.1142 8.93847 28.8125 9.02446C29.1368 9.10429 29.2956 9.35511 29.2888 9.77689L29.2816 10.2173C29.271 10.8748 28.9063 11.1976 28.1875 11.1856L26.6464 11.16L26.7161 6.86154L28.2191 6.88649C28.9379 6.89843 29.2919 7.23314 29.2813 7.89063ZM28.0479 7.66541L27.6547 7.65888L27.6395 8.59549L28.0327 8.60202C28.2314 8.60532 28.3322 8.51806 28.3351 8.34025L28.3417 7.93707C28.3445 7.75926 28.2466 7.66871 28.0479 7.66541ZM28.344 10.1397L28.3512 9.69928C28.354 9.52147 28.2561 9.43091 28.0574 9.42762L27.6262 9.42046L27.6104 10.3943L28.0416 10.4014C28.2403 10.4047 28.3411 10.3175 28.344 10.1397Z" fill="black"/>
    <path d="M38.6775 28.0691C38.7368 28.0822 38.7371 28.0826 38.8032 28.1253C38.8292 28.2065 38.846 28.2782 38.8581 28.3613C38.8619 28.3859 38.8656 28.4108 38.8695 28.4361C38.9111 28.7345 38.9091 29.0335 38.9061 29.3337C38.9051 29.4313 38.9047 29.5292 38.9045 29.6268C38.9043 29.6897 38.9042 29.7528 38.9038 29.8157C38.9037 29.8444 38.9032 29.8732 38.903 29.9028C38.9014 30.0484 38.8934 30.1903 38.8733 30.3347C38.8636 30.4108 38.862 30.4864 38.8619 30.5629V31.0133C38.8638 31.0887 38.8639 31.0892 38.8817 31.159C38.9137 31.303 38.9029 31.4523 38.903 31.5986C38.9034 31.6319 38.9042 31.6653 38.9045 31.6996C38.9046 31.7476 38.9045 31.748 38.9045 31.7968C38.9047 31.826 38.9052 31.8554 38.9053 31.8855C38.8977 31.9564 38.8972 31.9568 38.8344 32.0127C38.8241 31.985 38.8139 31.9572 38.8032 31.9287C38.803 31.9469 38.8027 31.9654 38.8024 31.9842C38.7997 32.1751 38.7967 32.3662 38.7933 32.5571C38.7921 32.6282 38.7912 32.6997 38.7903 32.7707C38.7888 32.8733 38.7868 32.9759 38.7849 33.0784C38.7846 33.1099 38.7845 33.1417 38.7842 33.1741C38.7801 33.3699 38.756 33.5547 38.7095 33.7463C38.6784 33.7093 38.647 33.6725 38.615 33.6344C38.6147 33.6583 38.6145 33.6823 38.6142 33.7069C38.6019 34.5136 38.602 34.5138 38.5251 34.886C38.52 34.9109 38.5151 34.936 38.5099 34.9616C38.4832 35.0783 38.4598 35.1684 38.3643 35.2569C38.3138 35.1235 38.2657 34.9889 38.2188 34.8544C38.2117 34.8341 38.2048 34.8136 38.1975 34.7927C38.1799 34.7424 38.1617 34.6918 38.1441 34.6416C38.1446 34.6907 38.1451 34.6908 38.1456 34.741C38.1468 34.8636 38.1473 34.9863 38.1479 35.1089C38.1482 35.1617 38.1489 35.2149 38.1495 35.2677C38.1502 35.3438 38.1499 35.4199 38.1502 35.496C38.1505 35.5194 38.1514 35.5435 38.1517 35.5677C38.1517 35.7079 38.1322 35.8227 38.0816 35.9556H38.0192C37.9726 35.8312 37.9722 35.8312 37.9247 35.7042H37.8622C37.8649 35.7526 37.8647 35.7528 37.8675 35.8021C37.8868 36.3082 37.8266 36.9141 37.517 37.3545C37.486 37.3637 37.4546 37.3727 37.4226 37.3822C37.4171 37.3525 37.4174 37.3524 37.4119 37.3221C37.3954 37.2321 37.379 37.1421 37.3624 37.0522C37.3567 37.021 37.3507 36.9895 37.3448 36.9573C37.3393 36.9274 37.3338 36.8971 37.3281 36.8663C37.323 36.8386 37.3173 36.8108 37.3121 36.7823C37.2982 36.7081 37.2982 36.7081 37.2656 36.6273C37.2587 36.6819 37.2589 36.6824 37.2519 36.7383C37.1486 37.4946 36.8268 38.1682 36.2309 38.7248C36.1898 38.7446 36.1477 38.7632 36.1051 38.7803C36.104 38.7561 36.104 38.7559 36.1028 38.731C36.0992 38.6567 36.0953 38.5824 36.0914 38.5081C36.0902 38.4824 36.0889 38.4566 36.0876 38.4302C36.0863 38.4054 36.0852 38.3802 36.0838 38.3546C36.0821 38.3204 36.0817 38.3202 36.08 38.2852C36.0738 38.224 36.0614 38.1685 36.0427 38.1094C36.0329 38.1627 36.0328 38.163 36.0228 38.2174C35.9362 38.6595 35.7861 39.0092 35.4773 39.3679C35.4458 39.4055 35.4143 39.4437 35.3828 39.4813C35.057 39.8685 34.7158 40.2489 34.2543 40.5146H34.1911C34.2115 40.4636 34.2115 40.4634 34.2323 40.4113C34.2953 40.2436 34.3371 40.0719 34.3793 39.8992H34.3168C34.3138 39.928 34.3108 39.9568 34.3077 39.9864C34.2434 40.2995 33.9198 40.6434 33.6341 40.8308C33.5201 40.8991 33.4021 40.96 33.2813 41.0182C33.271 40.9997 33.2608 40.9809 33.2501 40.9619C33.2786 40.8939 33.3088 40.8289 33.3423 40.7629C33.3514 40.7446 33.3604 40.7263 33.3697 40.7074C33.3923 40.6619 33.4154 40.6163 33.4383 40.5709C33.3579 40.6422 33.2776 40.714 33.199 40.7868C33.0393 40.9335 32.8883 41.0588 32.6855 41.1578C32.7475 41.167 32.8097 41.176 32.8737 41.1855C32.6271 41.4553 32.159 41.5164 31.8001 41.5873C31.7108 41.6045 31.7108 41.6048 31.6187 41.6336V41.6891C31.8886 41.6798 31.8889 41.6796 32.1521 41.6313C32.2419 41.6063 32.3096 41.6 32.4028 41.605C32.2992 41.7097 32.1796 41.7727 32.0424 41.8364C32.0194 41.8471 31.996 41.8577 31.9723 41.8688C31.7895 41.9521 31.6031 42.0257 31.413 42.0947C31.3873 42.1042 31.361 42.1135 31.3345 42.1232C31.1768 42.1787 31.035 42.208 30.8659 42.2204C30.897 42.1098 30.9277 41.9989 30.9597 41.885C30.9365 41.9083 30.9134 41.9319 30.8896 41.9559C30.451 42.392 29.8915 42.8282 29.2026 42.8643C29.2533 42.7684 29.3151 42.6805 29.3794 42.5913C29.3992 42.5638 29.4192 42.5364 29.4396 42.508C29.4623 42.4767 29.4621 42.476 29.4853 42.444C29.475 42.4349 29.4646 42.4257 29.454 42.4163C29.4384 42.4312 29.4222 42.4464 29.406 42.4618C29.2082 42.6447 28.9943 42.7996 28.7637 42.9476C28.7462 42.959 28.7284 42.9706 28.7104 42.9823C28.1988 43.3115 27.6952 43.3914 27.0691 43.3393C26.9322 43.3168 26.8176 43.2817 26.6927 43.2275C26.6622 43.2157 26.6312 43.2035 26.5998 43.1913C26.0316 42.9581 25.5666 42.5625 25.2458 42.0893C25.2283 42.0638 25.2105 42.0385 25.1924 42.0122C25.138 41.9327 25.0842 41.8528 25.0301 41.7731C24.9964 41.7238 24.9626 41.6744 24.9288 41.6251C24.8358 41.4888 24.7441 41.3518 24.6537 41.2141C24.6415 41.1954 24.629 41.1762 24.6164 41.157C24.431 40.8714 24.3031 40.5745 24.1828 40.2632C24.1529 40.7951 24.3244 41.2842 24.7162 41.6891C24.7446 41.7189 24.7731 41.7488 24.8016 41.7785C24.8668 41.8466 24.9326 41.915 24.9981 41.9829C25.0142 41.9995 25.0304 42.0159 25.0469 42.033C25.0877 42.0752 25.1285 42.1175 25.1696 42.1595C25.6571 42.6703 25.6572 42.6709 25.6572 42.8643C24.9731 42.801 24.4924 42.4275 24.0282 42.0076C24.0096 41.9908 23.9909 41.974 23.9718 41.9567C23.9317 41.9133 23.9322 41.913 23.9322 41.8572H23.8689C23.8802 41.8808 23.8915 41.9046 23.9032 41.9289L23.9916 42.114C24.0259 42.1928 24.0259 42.193 24.0259 42.2489C23.5808 42.1755 23.1323 41.9896 22.7709 41.7454C22.7606 41.7269 22.7504 41.7081 22.7397 41.6891C22.7811 41.6799 22.8228 41.6708 22.8654 41.6613C22.8328 41.6515 22.8 41.6414 22.7664 41.6313C22.2537 41.4716 21.9447 41.2519 21.66 40.837C21.6126 40.7666 21.6119 40.7665 21.5564 40.7066C21.5158 40.6548 21.516 40.6545 21.516 40.5709H21.4535C21.4606 40.5917 21.4675 40.6127 21.4749 40.6342C21.4839 40.6616 21.493 40.6891 21.5023 40.7174C21.5114 40.7447 21.5204 40.7719 21.5297 40.8C21.547 40.8771 21.5454 40.9175 21.516 40.9904C21.05 40.7301 20.7541 40.4408 20.5438 39.9833C20.5561 40.1328 20.5671 40.2649 20.6375 40.4028V40.4869C20.168 40.3397 19.8451 39.9106 19.5601 39.5692C19.5108 39.5103 19.4607 39.4519 19.4107 39.3934C19.0777 39.0007 18.9103 38.6268 18.8492 38.1372H18.8179C18.7883 38.2759 18.7773 38.4129 18.7692 38.5536C18.7671 38.5863 18.7667 38.5864 18.7646 38.6199C18.7613 38.6734 18.7586 38.7269 18.7555 38.7803C18.2918 38.4658 17.9647 37.9512 17.7824 37.4663C17.7722 37.4424 17.7618 37.4184 17.7512 37.3938C17.7033 37.2491 17.6795 37.1008 17.6529 36.9519C17.6472 36.9209 17.642 36.8898 17.6361 36.8578C17.6222 36.7811 17.6079 36.704 17.5942 36.6273C17.5365 36.8783 17.4822 37.1291 17.4373 37.3822H17.3748C17.3499 37.3339 17.3249 37.2856 17.3001 37.2372C17.2863 37.2103 17.2725 37.1832 17.2582 37.1555C17.2449 37.1288 17.2316 37.102 17.2178 37.0745C17.2071 37.0536 17.1961 37.0328 17.1851 37.0113C17.1413 36.9007 17.1168 36.7879 17.0921 36.6728C17.0867 36.6475 17.0817 36.6217 17.0761 36.5956C17.0158 36.3005 16.9896 36.0032 16.9664 35.7042C16.925 35.7871 16.884 35.8702 16.8414 35.9556H16.7782C16.7265 35.7808 16.7065 35.6187 16.7096 35.4382C16.7096 35.4163 16.7096 35.3944 16.7096 35.3718C16.7107 35.2399 16.7222 35.111 16.7401 34.9801C16.7501 34.8944 16.7502 34.8093 16.7492 34.7233C16.7489 34.692 16.7488 34.6607 16.7485 34.6284C16.7481 34.6051 16.7473 34.5815 16.7469 34.5575C16.7414 34.5766 16.7359 34.5957 16.7302 34.6153C16.7051 34.702 16.6799 34.7893 16.6547 34.876C16.6461 34.906 16.6378 34.9361 16.6288 34.967C16.6204 34.9958 16.6116 35.0252 16.6029 35.0549C16.5953 35.0813 16.588 35.1079 16.5801 35.1351C16.5592 35.2005 16.5589 35.201 16.5275 35.2569H16.465C16.2539 34.7292 16.2441 34.2155 16.2448 33.6622C16.2138 33.7176 16.214 33.7183 16.1823 33.7748C16.131 33.6542 16.1117 33.5549 16.1122 33.4262C16.1122 33.391 16.1122 33.3554 16.1122 33.319C16.1126 33.281 16.1134 33.2429 16.1138 33.2049C16.1139 33.1656 16.1137 33.1262 16.1138 33.0869C16.114 32.9841 16.1146 32.8813 16.1153 32.7785C16.1159 32.6734 16.1165 32.5682 16.1168 32.4631C16.1175 32.257 16.1185 32.0506 16.1199 31.8446H16.0566V31.9842C16.0359 31.9934 16.0154 32.0032 15.9941 32.0127C15.9506 31.878 15.9567 31.7447 15.9568 31.6055C15.9568 31.5777 15.9568 31.5494 15.9568 31.5207C15.9581 31.3594 15.9716 31.2102 16.0117 31.0526C16.0529 30.8322 16.0337 30.6001 16.0101 30.3786C15.9923 30.1906 15.989 30.0036 15.9888 29.8149C15.9887 29.7797 15.9889 29.744 15.9888 29.7077C15.9886 29.6338 15.988 29.5596 15.988 29.4857C15.988 29.4106 15.9885 29.3355 15.988 29.2605C15.9875 29.151 15.9873 29.0415 15.9873 28.932C15.987 28.8989 15.9867 28.8657 15.9865 28.8317C15.9883 28.2451 15.9882 28.2451 16.1199 28.0691C16.1508 28.0782 16.1817 28.0873 16.2136 28.0968C16.2181 28.1219 16.2226 28.1473 16.2273 28.1732C16.3178 28.6697 16.4124 29.1656 16.5176 29.6599C16.5221 29.6811 16.5267 29.7022 16.5313 29.7239C16.5754 29.9312 16.6213 30.1385 16.6715 30.3447C16.7849 30.8117 16.8497 31.2748 16.878 31.7513C16.8948 32.0313 16.9228 32.2991 16.9984 32.5718C17.0095 32.6125 17.0091 32.6128 17.0205 32.6543C17.0354 32.7073 17.0507 32.7603 17.0662 32.8132C17.1233 33.0203 17.1696 33.2297 17.2178 33.4386C17.2385 33.4017 17.259 33.3647 17.2803 33.3267C17.4835 33.6852 17.6219 34.0565 17.7573 34.4387C17.813 34.5933 17.8727 34.728 17.9706 34.8652C17.9862 34.6853 17.9861 34.6852 18.0019 34.502C18.1259 34.5573 18.1447 34.5662 18.2068 34.6655C18.2207 34.6872 18.2345 34.7094 18.2488 34.7318C18.2631 34.7549 18.2774 34.7781 18.2922 34.802C18.3075 34.826 18.3229 34.8505 18.3387 34.8752C18.406 34.9814 18.4722 35.0881 18.5375 35.1952C18.7006 35.4589 18.8915 35.7413 19.1319 35.9556C19.1422 35.9188 19.1525 35.8817 19.1631 35.8438C19.521 35.9705 19.8024 36.3645 19.9784 36.655V36.7113C20.1073 36.6306 20.1699 36.5612 20.2298 36.4314C20.235 36.4009 20.2397 36.3703 20.2451 36.3389C20.3208 36.1729 20.4798 36.0893 20.6375 35.9841C20.7533 35.905 20.814 35.8431 20.8882 35.732C20.9357 35.6877 20.9854 35.6462 21.036 35.6047C21.0849 35.5624 21.0849 35.5621 21.1084 35.4806C21.067 35.4713 21.0253 35.4623 20.9826 35.4528C20.9959 35.4422 21.0093 35.4313 21.023 35.4204C21.3617 35.1371 21.613 34.719 21.6669 34.3061C21.7099 34.0417 21.8111 33.7925 21.9526 33.5573C21.9906 33.4873 22.0221 33.4156 22.0532 33.3429C22.1342 33.1541 22.2207 32.9821 22.3633 32.8232C22.3773 32.8066 22.3915 32.7901 22.406 32.7731C22.7109 32.4575 23.2431 32.3457 23.6807 32.2641H23.7752C23.7441 32.3472 23.7436 32.3475 23.712 32.4322C23.9751 32.3334 24.226 32.2364 24.4655 32.0968C24.5344 32.0791 24.5344 32.0785 24.5905 32.0682C24.5801 32.1144 24.5699 32.161 24.5593 32.2086C24.5761 32.2011 24.593 32.1931 24.6103 32.1854C25.5135 31.7882 25.7998 31.6622 26.1129 31.6811L26.0138 31.4058C26.6178 31.4058 26.5841 31.4733 27.0874 30.9639C27.5907 30.4546 28.1613 30.081 28.7317 30.081C29.3021 30.081 29.7045 30.4547 30.04 29.8095C30.3084 29.2934 30.4207 29.051 30.4431 28.9944V29.8095C30.4429 30.172 30.584 30.5248 29.2849 30.9639C28.7924 31.1306 29.3397 31.6871 30.0484 32.1014C30.1326 32.1375 30.2168 32.173 30.3006 32.2086C30.2902 32.1624 30.28 32.1158 30.2693 32.0682C30.4551 32.1158 30.6086 32.1975 30.7737 32.2842C30.896 32.3472 31.0111 32.3972 31.1479 32.4322C31.1272 32.3768 31.1067 32.3212 31.0854 32.2641C32.295 32.5177 32.2949 32.5181 32.6344 32.9774C32.7327 33.1206 32.803 33.2733 32.8737 33.4285C32.8941 33.473 32.894 33.4733 32.9148 33.5188C32.9536 33.6039 32.9924 33.6894 33.0306 33.7748C33.0402 33.7957 33.0498 33.8165 33.0596 33.838C33.1349 34.0046 33.1923 34.1538 33.2013 34.3339C33.2238 34.7389 33.5263 35.1179 33.8307 35.4027C33.8777 35.4522 33.8772 35.4526 33.8772 35.5083H33.7835C33.8005 35.5286 33.8005 35.5287 33.8177 35.5492C33.8335 35.5679 33.8495 35.587 33.8658 35.6063C33.8833 35.6268 33.901 35.6475 33.9191 35.6687C33.9508 35.707 33.9816 35.746 34.0105 35.7859C34.1138 35.924 34.2373 36.0111 34.3854 36.1083C34.5406 36.211 34.6395 36.2835 34.6795 36.4592C34.7016 36.5505 34.7553 36.6095 34.819 36.6828C34.8396 36.692 34.8601 36.7018 34.8814 36.7113C34.8932 36.682 34.8931 36.6816 34.9051 36.6519C35.0598 36.3317 35.3491 36.0749 35.6342 35.8438H35.6655V36.0119H35.7287C35.7361 35.9969 35.7433 35.9818 35.7508 35.9664C35.8023 35.8821 35.867 35.8122 35.9345 35.7374C36.1448 35.4984 36.3104 35.2394 36.4777 34.9755C36.4931 34.9514 36.5084 34.927 36.5242 34.9022C36.5542 34.8551 36.5839 34.8076 36.6134 34.7603C36.6269 34.7389 36.6405 34.7175 36.6545 34.6955C36.6665 34.6764 36.6787 34.6567 36.6911 34.6369C36.7324 34.5854 36.7328 34.5856 36.8579 34.502C36.8683 34.6218 36.8785 34.7417 36.8892 34.8652C37.081 34.6209 37.1747 34.3493 37.2603 34.0632C37.3388 33.8083 37.4601 33.5682 37.5795 33.3267H37.6428C37.6531 33.3544 37.6633 33.3823 37.674 33.4108C37.8242 32.8458 37.9692 32.2856 38.0131 31.705C38.0146 31.6843 38.016 31.6632 38.0176 31.6418C38.0237 31.5606 38.03 31.4793 38.0359 31.3981C38.0591 31.0966 38.1168 30.7993 38.1761 30.502C38.1823 30.4706 38.188 30.4388 38.1944 30.4064C38.2571 30.0918 38.324 29.778 38.3994 29.4656C38.4864 29.1044 38.555 28.7426 38.5921 28.3744C38.6042 28.2636 38.6239 28.17 38.6775 28.0691Z" fill="black"/>
    <path d="M23.4158 40.7359C23.6496 41.1257 24.3373 42.1145 24.8049 42.4834C23.8202 42.3219 23.4502 41.2556 23.4158 40.7359Z" fill="#FBFBFB"/>
    <path d="M21.9171 39.5615C22.004 39.8688 22.2598 40.6479 22.4337 40.9387C21.8491 40.6305 21.9298 39.9712 21.9171 39.5615Z" fill="#FBFBFB"/>
    <path fill-rule="evenodd" clip-rule="evenodd" d="M32.0808 34.2498C32.1557 34.3727 32.2116 34.4844 32.2484 34.6207C32.2915 34.7744 32.3634 34.9067 32.4457 35.0464C32.581 35.2821 32.5359 35.6008 32.4656 35.8507C32.4325 36.0913 32.5272 36.2949 32.6286 36.5139C32.6547 36.5711 32.6804 36.6286 32.7063 36.6859C32.7179 36.7108 32.7295 36.7357 32.7414 36.7614C32.7666 36.8227 32.7665 36.823 32.7665 36.8786L32.3924 36.7668V37.8017C32.3001 37.7603 32.2097 37.7173 32.1196 37.6722L32.0442 37.6344L31.9878 37.6058L31.997 37.6799C31.9864 37.7816 31.9565 37.8295 31.8819 37.9058C31.7913 37.9697 31.6864 37.9654 31.5764 37.9644C31.4186 37.9603 31.4182 37.9602 31.2701 37.9976C31.2555 38.0629 31.2443 38.1289 31.235 38.195L31.2198 38.3045L31.2083 38.3893C31.0821 38.3227 30.9621 38.2501 30.8426 38.1742C30.7662 38.135 30.7021 38.1206 30.6155 38.1094L30.6468 38.3053C30.4207 38.292 30.2333 38.2413 30.0235 38.1657L30.0387 38.2359C30.056 38.3416 30.0595 38.4429 30.0601 38.5497L30.0616 38.6615C30.0544 38.7528 30.0546 38.7529 29.9923 38.8088L29.9465 38.7309C29.8182 38.5133 29.6859 38.2977 29.548 38.0847C29.4749 37.9685 29.4096 37.8619 29.3713 37.7323C29.2562 37.3949 28.8777 37.1217 28.5583 36.9349C28.4721 36.8982 28.4718 36.8979 28.4021 36.8786L28.4348 36.9342L28.4783 37.0082L28.5209 37.0807C28.5603 37.1629 28.5769 37.2382 28.5895 37.3267C28.4187 37.2308 28.2488 37.1334 28.0843 37.029C27.8707 36.8719 27.8704 36.8723 27.6226 36.7954L27.634 36.8879C27.6353 37.0547 27.5378 37.1919 27.4359 37.3267L27.3734 37.3544C27.2587 37.2599 27.1865 37.1747 27.1235 37.0468H26.9681L26.9993 36.7668C26.7546 36.8947 26.5389 37.0438 26.3227 37.2072C26.3022 37.2225 26.2813 37.2376 26.2602 37.2534C26.2418 37.2674 26.2235 37.2814 26.2046 37.2958C26.1572 37.3261 26.1572 37.3267 26.0949 37.3267C26.1059 37.1711 26.1564 37.0682 26.2457 36.9349C26.286 36.8762 26.2868 36.8765 26.3135 36.7954C25.856 37.0393 25.4187 37.3266 25.224 37.784C25.1694 37.9045 25.0996 38.0168 25.0289 38.1302C25.014 38.1542 24.9993 38.1788 24.9839 38.2035C24.937 38.2785 24.8895 38.3531 24.8407 38.4271L24.6555 38.6978C24.628 38.7358 24.5975 38.7726 24.5671 38.8088H24.5047V38.1657L24.2868 38.249C24.1699 38.263 24.1699 38.2629 24.0688 38.249L24.0254 38.1811C23.9837 38.1075 23.9837 38.1073 23.918 38.087C23.7941 38.0647 23.7209 38.0685 23.6086 38.1241C23.5537 38.1593 23.4998 38.1957 23.4471 38.2336C23.3828 38.2773 23.3826 38.2775 23.3206 38.2775V37.8858L23.2071 37.9135C23.0963 37.9378 22.9984 37.9563 22.884 37.9421C22.7652 37.8545 22.754 37.7074 22.7278 37.5781L22.6623 37.6213L22.4901 37.7308C22.4159 37.7735 22.416 37.774 22.3537 37.774C22.3162 37.5642 22.3193 37.3567 22.3209 37.1447V37.0344C22.3213 36.9453 22.3218 36.8559 22.3224 36.7668L22.0108 36.8786C22.0289 36.7542 22.0662 36.6526 22.122 36.5378C22.1985 36.3661 22.2166 36.2228 22.1982 36.0396L21.9171 36.0119L21.9689 35.9085C22.0816 35.6773 22.1802 35.4586 22.234 35.2099C22.2735 35.0706 22.3377 34.9421 22.4009 34.8104C22.4671 34.6711 22.5106 34.5395 22.5411 34.3901C22.5604 34.343 22.5798 34.2955 22.6028 34.2498C22.881 34.2347 23.1317 34.2855 23.4014 34.3393C23.9387 34.4457 24.4722 34.5208 25.019 34.5745C25.1225 34.5851 25.2259 34.5971 25.3291 34.6099C25.3603 34.6138 25.3915 34.6175 25.4236 34.6215C25.4789 34.6285 25.5344 34.6358 25.5897 34.6431C26.8624 34.7996 28.2242 34.7441 29.4932 34.5852C29.5365 34.5799 29.5366 34.5799 29.5808 34.5745C30.2203 34.4946 30.8613 34.4131 31.4925 34.2899C31.6909 34.2524 31.8782 34.2433 32.0808 34.2498ZM28.0538 35.7242C28.0226 35.7249 27.9919 35.7252 27.9617 35.7258C27.2476 35.7403 26.5352 35.7245 25.8213 35.7065C25.7872 35.7056 25.7539 35.705 25.7207 35.7042C25.7194 35.7601 25.7195 35.8164 25.7207 35.8723C25.7659 35.9534 25.7661 35.9535 25.9265 36.0751C26.4271 36.4013 27.3062 36.3627 27.8916 36.3011L27.9655 36.2918C28.1511 36.272 28.326 36.2343 28.5026 36.18C28.5254 36.1728 28.5476 36.1654 28.5697 36.1584C28.699 36.1194 28.8053 36.0805 28.9004 35.9903C28.9712 35.8888 28.9715 35.8885 28.9636 35.7042C28.6605 35.7111 28.357 35.7181 28.0538 35.7242Z" fill="#FBFBFB"/>
    <path d="M27.3422 33.1031C27.4056 33.1543 27.4463 33.202 27.4923 33.2674C27.619 33.4297 27.7911 33.5479 28.0081 33.5943C28.0906 33.6066 28.1692 33.6116 28.2527 33.6136C28.2831 33.6145 28.3136 33.6157 28.3449 33.6167C28.4083 33.6184 28.472 33.6198 28.5354 33.6213C28.7045 33.6266 28.8603 33.6411 29.0246 33.6776C29.1185 33.6969 29.212 33.703 29.308 33.7085C29.3431 33.7105 29.3786 33.7125 29.4147 33.7146C29.4406 33.716 29.4665 33.7171 29.4932 33.7185C29.4778 33.7012 29.4626 33.6838 29.4467 33.666C29.4 33.6067 29.3995 33.6067 29.3995 33.5511C29.5798 33.5837 29.7489 33.6265 29.9222 33.6815C30.2629 33.7882 30.6332 33.8813 30.9897 33.7748C31.3033 33.7563 31.5741 33.7613 31.8629 33.8866C31.7257 34.0096 31.5187 34.0458 31.3348 34.0855C31.3141 34.0903 31.2929 34.0953 31.2716 34.1002C30.9504 34.1711 30.6305 34.1723 30.3016 34.1727C30.264 34.1728 30.2639 34.1734 30.2254 34.1735C29.8664 34.1738 29.5133 34.1584 29.1564 34.1241C29.1163 34.1203 29.0758 34.1165 29.0345 34.1125C28.9965 34.1089 28.9585 34.1055 28.9194 34.1017C28.5211 34.0635 28.1857 34.0834 27.7978 34.1719C27.4333 34.2535 27.1391 34.2282 26.7768 34.1519C26.287 34.0492 25.852 34.0708 25.3581 34.1357C25.0332 34.1738 24.709 34.1735 24.382 34.1727C24.3547 34.1727 24.3271 34.1727 24.2989 34.1727C24.2199 34.1725 24.141 34.1725 24.062 34.1719C24.0386 34.1718 24.0151 34.1713 23.9911 34.1711C23.7655 34.1685 23.5453 34.1562 23.3297 34.0925C23.2998 34.0838 23.2699 34.0752 23.2391 34.0663C23.2087 34.0572 23.1781 34.0479 23.1469 34.0385C23.1155 34.0293 23.084 34.0202 23.0516 34.0107C22.9748 33.9882 22.8981 33.9651 22.8215 33.9421V33.8866C23.133 33.7393 23.4476 33.7502 23.7877 33.8025C24.2544 33.846 24.6451 33.713 25.0784 33.5727C25.1595 33.5511 25.1597 33.5511 25.2841 33.5511C25.2484 33.6199 25.2206 33.6641 25.1599 33.7185C25.4509 33.701 25.7417 33.6828 26.0324 33.663C26.0634 33.6609 26.0949 33.6582 26.1269 33.656C26.5414 33.6268 26.9265 33.5947 27.2172 33.299C27.2662 33.235 27.304 33.1731 27.3422 33.1031Z" fill="#FBFBFB"/>
</svg>