<svg width="70" height="69" viewBox="0 0 70 69" fill="none" xmlns="http://www.w3.org/2000/svg">
    <path d="M0 34.4756C0 15.6979 15.2223 0.475586 34 0.475586H36C54.7777 0.475586 70 15.6979 70 34.4756C70 53.2533 54.7777 68.4756 36 68.4756H34C15.2223 68.4756 0 53.2533 0 34.4756Z" fill="#F89717"/>
    <circle cx="34.8118" cy="34.6677" r="32" fill="black"/>
    <path d="M46.409 8.8273L48.8119 12.6678L50.3119 17.1678V19.8525C50.3119 19.8525 49.8717 20.7466 49.3558 21.3171C48.5948 22.1586 47.9304 23.1497 44.9501 21.021C41.9698 18.8922 37.0273 15.779 31.562 15.779C27.1867 15.779 22.9458 18.2972 19.8198 20.5956L20.8239 14.2496C20.8239 14.2496 21.6727 12.3414 22.3119 11.1678C22.8565 10.1679 26.1903 8.10326 26.929 7.58221C27.6677 7.06117 31.8119 6.16777 31.8119 6.16777L35.3637 5.89526L40.1031 6.49774L46.409 8.8273Z" fill="#F89717"/>
    <path d="M47.5325 45.3428C47.5686 49.3995 47.3354 52.9586 44.4439 56.0773C42.2402 58.2483 38.8963 59.9163 35.7436 59.9273L35.3479 59.9124C34.9749 58.7936 35.024 57.1626 35.5345 56.0983C36.2818 54.8847 37.2958 54.3058 38.5252 53.6464C41.075 52.2744 43.5143 50.58 45.3002 48.2612C45.3552 48.1905 45.4103 48.1198 45.467 48.047C46.1457 47.1683 46.7971 46.2665 47.4131 45.3428H47.5325Z" fill="#FCFCFC"/>
    <path d="M23.0438 46.2982C23.7996 47.2439 24.0494 48.5002 24.3802 49.6421C25.0278 51.8445 25.7326 54.0321 26.6396 56.1431L26.747 56.4491L26.6275 56.688C24.3159 54.5737 23.1976 51.897 23.0438 48.8061C23.0216 47.97 23.0288 47.1344 23.0438 46.2982Z" fill="#FCFCFC"/>
    <path fill-rule="evenodd" clip-rule="evenodd" d="M30.2397 20.823C32.9501 19.8768 36.3375 20.5414 38.9615 21.4584C39.0936 21.5042 39.2257 21.5501 39.3618 21.5973C40.455 21.9851 41.5158 22.4333 42.5707 22.9145C42.9094 23.069 43.2495 23.2197 43.5904 23.3691C43.7429 23.4392 43.7429 23.4393 43.8984 23.5108C44.8795 23.9222 45.8526 23.9263 46.8979 23.9364C47.0761 23.9398 47.2543 23.9433 47.4324 23.9471C47.864 23.9558 48.2955 23.9618 48.7271 23.9662C49.0221 24.7465 49.1735 25.4983 49.2721 26.3248C49.3016 26.5559 49.3311 26.787 49.3608 27.018L49.4031 27.3543C49.484 27.9783 49.5831 28.5996 49.6828 29.2208L49.8363 29.0016C49.9839 28.7908 50.1318 28.5802 50.2801 28.3699C50.4346 28.1479 50.5866 27.924 50.7355 27.6982C51.4468 26.6315 52.0664 26.3571 52.0719 26.3547C52.0719 26.3547 52.5132 26.3549 52.9081 26.4741C53.5054 27.0712 53.4334 27.867 53.4414 28.6564C53.422 29.9303 53.0772 31.1211 52.7555 32.346C52.401 33.7353 52.2533 35.1294 52.1805 36.5598C52.1211 37.4886 51.9521 38.4471 51.2805 39.1403C50.889 39.4597 50.7007 39.5057 50.2054 39.4986L49.9095 39.4953L49.6828 39.4911C49.5016 39.1288 49.5462 38.7536 49.5484 38.3566L49.547 38.1071C49.5484 37.7596 49.6604 37.5206 49.6828 37.2221C49.8022 36.8042 49.856 36.63 49.862 36.3862C49.9166 35.588 49.9756 35.2833 50.519 34.7143C51.056 34.0879 51.2943 33.5451 51.2749 32.7027C51.1801 32.0797 50.8642 31.5299 50.519 31.0122L49.6828 31.1316L49.735 31.5598C49.7575 31.7504 49.7799 31.9411 49.8022 32.1317L49.8368 32.4121C49.971 33.5717 49.9345 34.5859 49.6604 35.7219C49.3854 36.9131 49.1548 38.1079 48.9512 39.3134C48.7349 40.5399 48.3854 41.7022 47.8162 42.8126C47.7755 42.8925 47.7347 42.9726 47.6927 43.0549C46.8521 44.6637 45.7721 46.041 44.5461 47.373L44.2629 47.6823C41.8697 50.1801 38.3611 52.1056 34.8699 52.1849C31.4597 52.2115 28.7583 50.5324 26.2691 48.3284L25.9626 48.0662C25.3718 47.5566 24.856 47.017 24.3578 46.4176L24.1049 46.1284C22.3918 44.1254 21.4151 41.8489 21.013 39.2523L20.6546 39.4911C20.6494 39.4923 20.1207 39.6103 19.8184 39.4911C19.3845 39.32 19.2095 38.9895 19.1017 38.5358C19.0466 38.3035 19.0859 38.1284 19.0849 37.9247C19.0543 35.888 18.8026 33.9598 18.385 31.9675C18.3625 31.8586 18.34 31.7496 18.3168 31.6374C18.1461 31.251 18.146 31.1316 18.0266 30.7733C17.9071 30.4149 17.1639 28.2989 17.9216 27.0633C18.0266 26.8921 18.2058 26.6533 18.385 26.5935C18.7675 26.4661 19.05 26.7248 19.3257 27.019C19.8782 27.6086 20.1973 28.6271 20.5352 29.4597C20.7732 28.4917 20.9012 27.5136 21.028 26.5264C21.0498 26.3587 21.0718 26.1909 21.0937 26.0232C21.147 25.6163 21.1996 25.2092 21.2519 24.8022C21.3751 24.787 21.4983 24.7719 21.6252 24.7562C21.7884 24.7355 21.9516 24.7148 22.1147 24.694C22.1957 24.6841 22.2768 24.6742 22.3603 24.664C23.5025 24.5168 24.3176 23.9725 25.271 23.3683C26.7387 22.4387 28.2334 21.6154 29.8529 20.9807L30.2397 20.823ZM36.0049 45.2234C35.3877 45.303 33.7232 45.4145 32.0031 45.2234C32.3216 45.522 33.1738 46.1191 34.0339 46.1191C34.8939 46.1191 35.7062 45.522 36.0049 45.2234ZM29.6737 43.0191C29.3551 42.8599 28.7061 42.5534 28.6583 42.6011C28.6103 42.6491 28.1605 43.2182 27.9415 43.4968C28.3 43.5565 32.8989 44.0342 33.8547 44.0342C34.8103 44.0342 40.0655 43.676 40.0665 43.5565C40.0664 43.437 39.6483 42.7206 39.1705 42.7803C38.6927 42.84 38.2746 43.1385 37.4384 43.1983C36.6022 43.2579 35.8257 42.8997 35.2882 42.8997C34.7506 42.8997 34.213 43.258 33.8547 43.258C33.4963 43.2579 33.0781 42.7803 31.9434 43.0191C31.0355 43.2102 30.052 43.0987 29.6737 43.0191ZM26.8664 26.5562C26.3016 26.5349 25.8403 26.5303 25.3345 26.8058C24.6252 27.3021 24.0747 27.878 23.88 28.7431C24.1189 28.7431 24.119 28.7431 24.3317 28.6397C25.2341 28.1961 26.1075 28.2077 27.0878 28.2294C27.2708 28.2336 27.4539 28.2368 27.6369 28.2392C28.1766 28.2449 28.298 28.3132 28.8375 28.3252C28.5179 28.4142 28.5985 28.4143 28.5645 28.4143C27.092 28.5002 25.8131 28.6281 24.7162 29.6985V30.1762C25.3146 30.5351 25.711 30.5695 26.3886 30.5345C26.3388 30.1316 26.3388 30.1315 26.3886 29.6985C26.672 29.4587 26.6721 29.4586 26.9859 29.3402C26.9486 29.594 26.9486 29.5941 26.9859 29.9374C27.182 30.256 27.2954 30.4354 27.5832 30.6539C28.0249 30.807 28.421 30.8047 28.8748 30.6838C29.3029 30.4392 29.4627 30.2363 29.6961 29.7955L29.8529 29.4597L30.0918 29.6985C30.2075 29.8997 30.3271 30.0988 30.4501 30.2956L30.8085 30.5345L30.2112 31.1316C29.9126 31.4301 29.8528 31.6093 29.7334 31.7884L31.7044 30.9226C31.6491 31.4486 31.5303 32.6428 31.3717 33.1496L31.2863 33.4006C30.9809 34.3131 30.6358 35.0861 30.0656 35.8623L29.8529 36.1473C29.2164 37.011 28.977 37.6933 29.1361 38.7746C29.4225 39.6493 30.0093 40.3536 30.7637 40.872C31.5339 41.2994 32.3957 41.2876 33.2434 41.1001L33.4366 41.0436L33.556 41.6408H33.7949C33.9543 41.4171 34.1047 41.1869 34.2504 40.9541C34.6384 40.3329 34.9787 39.8779 35.6727 39.5998C36.1155 39.4649 36.4598 39.3442 36.7702 39.1239C36.5857 38.9764 36.4012 38.8288 36.2116 38.6772C36.0908 38.7023 35.9668 38.7381 35.8355 38.7881C35.4759 38.9533 35.1218 39.1147 34.7506 39.2523C34.2599 39.314 33.7677 39.3581 33.3171 39.1329C32.7326 38.6924 32.2584 38.3838 31.5253 38.2596C31.326 38.2339 31.1268 38.207 30.928 38.1775C30.7823 38.058 30.7822 38.058 30.7927 37.8197L30.7936 37.5281C30.793 37.3465 30.7972 37.1646 30.8085 36.9833C30.9116 36.7332 30.9117 36.7332 31.1319 36.5896C31.3907 36.411 31.6391 36.2256 31.8836 36.0279C32.9201 34.8516 32.9645 32.7598 32.9864 31.2533L32.9886 30.9226C32.999 29.9577 32.8931 29.0678 32.6088 28.1432L32.4958 27.8624C32.3848 27.576 32.3848 27.5759 32.242 27.3101C31.9875 26.9997 31.8479 26.8493 31.4491 26.7692L31.0936 26.7638L30.7014 26.7538C30.4308 26.7515 30.1601 26.7477 29.8895 26.7426L29.4959 26.7339C29.0989 26.7258 28.7264 26.7061 28.3321 26.6532C27.9328 26.5922 27.5479 26.5676 27.1445 26.5597L26.8664 26.5562ZM37.6176 36.1473C38.0887 37.575 39.1183 38.4407 40.2456 39.3717C40.2046 39.1082 40.2046 39.1081 40.1262 38.7746C39.5898 37.6352 38.7237 36.5323 37.6176 35.9085V36.1473ZM20.2823 30.1763C19.7931 30.6822 19.4403 31.3065 19.2072 31.9677C19.1258 32.6593 19.1315 33.2795 19.4689 33.9022C19.8392 34.574 20.0046 35.0226 19.9239 35.7892C19.8045 36.1474 19.8044 36.1474 19.7886 36.4311L19.7895 36.7446C19.7875 37.4184 19.9316 37.8002 20.4017 38.297H20.8796C20.9049 35.5748 20.7411 32.889 20.5212 30.1763H20.2823ZM18.2515 27.7879C18.2063 28.5327 18.2596 29.2513 18.368 29.9879C18.3843 30.0925 18.4 30.1942 18.4158 30.2957C18.4313 30.3987 18.4463 30.4987 18.4614 30.5986C18.4773 30.6961 18.4927 30.7908 18.5081 30.8854C18.5693 31.2623 18.626 31.3947 18.8488 31.7288C18.9449 31.0078 19.0739 30.2942 19.2072 29.5792C19.516 29.8159 19.8093 30.0122 20.1628 30.1763C20.1628 29.8019 20.1628 29.8018 19.6864 29.1197L19.4087 28.7358C19.0613 28.2493 18.8359 27.9543 18.2515 27.7879ZM43.1126 26.5935C41.977 25.7685 40.3495 26.0291 39.0478 26.3146C38.2608 26.4898 37.4848 26.6359 36.6843 26.7279C36.3655 26.7622 35.9384 26.7197 35.7063 26.9518C35.6486 27.3553 35.6128 27.6599 35.8621 28.0009C36.3261 28.5236 36.5026 28.511 36.5425 29.2208C36.5458 29.4648 36.3035 29.8623 36.1244 30.1762C37.1397 30.5942 37.8565 31.0122 39.5289 31.7287C39.3497 31.5496 39.178 31.3704 38.8196 31.0122L37.9162 30.3553L38.555 29.8623L38.8196 29.6313C38.9764 29.4945 39.0511 29.4 39.29 29.4C39.29 29.8603 39.2891 29.8109 39.5289 30.1762C39.876 30.5332 40.0513 30.646 40.5518 30.6987C41.049 30.6445 41.3116 30.5619 41.6437 30.1827L41.8285 29.9224L42.017 29.6603L42.157 29.4597C42.2788 29.5409 42.9942 29.9779 43.1126 30.0568L44.4266 30.2956C44.4265 30.2143 44.1139 29.7582 44.0085 29.6388C42.8598 28.3364 42.9195 28.3961 39.6208 28.1604L39.4094 28.146C40.262 27.8346 41.0529 27.6387 41.9588 27.6231L42.254 27.6236C42.9382 27.6224 43.5645 27.6954 44.2301 27.8566L44.4266 27.9072C44.1813 27.3821 43.8637 27.1357 43.4001 26.7946L43.1126 26.5935Z" fill="#FCFCFC"/>
    <path d="M21.9687 46.5371L21.6952 46.608C20.4229 46.9535 19.194 47.4014 17.9594 47.8617C17.7151 47.9527 17.4703 48.0425 17.2254 48.132C16.7624 48.3056 16.3054 48.4936 15.8479 48.6811C15.6083 48.7788 15.3687 48.8766 15.129 48.9743C14.9641 49.0418 14.7992 49.1097 14.6345 49.1779C14.3948 49.2771 14.1546 49.3748 13.9142 49.4722C13.772 49.5306 13.6298 49.589 13.4834 49.6492C13.1576 49.7524 13.1313 49.7605 12.851 49.6685C12.8259 49.6604 12.7992 49.6516 12.7705 49.6421C12.924 49.5389 13.0785 49.4371 13.2334 49.336L13.4937 49.1639L13.7261 49.0449C13.7314 49.0476 13.7366 49.0501 13.7419 49.0528C14.2742 48.7562 14.8207 48.4872 15.3725 48.2189C15.6318 48.0924 15.8901 47.9639 16.1484 47.8353C20.735 45.5817 20.7351 45.5817 21.9687 45.5817V46.5371Z" fill="#FCFCFC"/>
    <path d="M19.5795 23.9662C19.4468 24.995 19.3802 25.7508 19.3796 25.7576C19.3779 25.7537 19.1481 25.2202 19.0462 24.8619C18.949 24.5202 18.8635 23.9705 18.8628 23.9662H19.5795Z" fill="#FCFCFC"/>
    <path fill-rule="evenodd" clip-rule="evenodd" d="M31.2011 5.89055C34.4751 5.39237 37.6208 5.80138 40.8429 6.41116C41.0317 6.44648 41.0318 6.44649 41.2244 6.48253C45.3134 7.28277 49.4315 9.38954 52.6309 12.0338C52.8154 12.1862 53.0027 12.3353 53.1928 12.4807C54.8138 13.742 56.342 15.2706 57.5669 16.9203C57.6244 16.9964 57.6819 17.0725 57.7411 17.1509C61.4504 22.0746 63.4883 27.7157 63.7787 33.8783L63.8049 34.3541C63.8663 36.5752 63.5099 38.8714 63.062 41.0436L62.9752 41.5083C62.5167 43.8061 61.5534 46.0389 60.4339 48.0896C60.3916 48.1685 60.3493 48.2476 60.3057 48.329C59.4844 49.8591 58.5446 51.2786 57.4475 52.6276L57.1792 52.963C55.8549 54.5903 54.3534 56.1484 52.6692 57.4045C52.5942 57.4615 52.5192 57.5185 52.442 57.5772C49.6797 59.6695 46.6569 61.255 43.3515 62.3008C43.2157 62.344 43.2156 62.344 43.077 62.3881C36.8279 64.3493 29.6341 64.0976 23.6411 61.3454C23.5444 61.3016 23.4477 61.2578 23.3482 61.2126C21.187 60.2272 19.1747 59.1205 17.3098 57.6433L17.0117 57.4148C16.1493 56.7444 15.352 56.0082 14.5623 55.2549L14.3511 55.0541C13.3908 54.1355 12.5198 53.1843 11.7282 52.1164C11.5804 51.9171 11.4301 51.7198 11.2796 51.5225C6.78837 45.5362 5.0683 37.703 6.10326 30.3404C6.30909 28.9857 6.65581 27.6696 7.03652 26.3547C7.06342 26.2609 7.09034 26.167 7.11806 26.0704C8.0899 22.7513 9.80114 19.7425 11.9343 17.0397L12.1988 16.6983C13.4918 15.0499 14.9419 13.5532 16.5931 12.2629C16.7432 12.1424 16.8933 12.0218 17.0434 11.9013C19.6731 9.81383 22.7175 8.17508 25.9108 7.12769C25.9997 7.0979 26.0887 7.06811 26.1804 7.03742C27.7395 6.52117 29.3052 6.17997 30.928 5.93347C31.0181 5.9193 31.1082 5.90514 31.2011 5.89055ZM38.9724 6.50282C33.2659 5.31147 26.835 6.63179 22.7055 10.9319C21.3362 12.5051 20.9162 14.6344 20.6089 16.6453C20.5724 16.8844 20.5342 17.1231 20.4958 17.3619C20.3565 18.248 20.2427 19.1306 20.1768 20.0253C20.6002 19.8637 20.963 19.6753 21.3422 19.4257C23.4033 18.0707 25.6575 16.8121 28.061 16.2038L28.509 16.083C30.7309 15.5881 33.6504 15.5331 35.8257 16.2038C35.9282 16.2352 36.0308 16.2668 36.1364 16.2992C38.9845 17.196 41.5431 18.4936 43.9488 20.2641L43.6105 20.0929C43.0874 19.8291 42.5627 19.5685 42.0375 19.3088C41.9475 19.2641 41.8574 19.2195 41.7646 19.1735C39.6628 18.1364 37.538 17.2436 35.2284 16.8009L34.8444 16.7197C32.7797 16.3472 30.4438 16.3643 28.4194 16.9203C28.3404 16.9415 28.2614 16.9628 28.1801 16.9846C25.8177 17.6373 23.5343 18.8015 21.4908 20.1447L21.2662 20.2913C20.1872 21.0005 19.1599 21.768 18.1492 22.5711C17.7239 22.908 17.3087 23.2254 16.832 23.4886C16.7746 23.121 16.7746 23.1209 16.832 22.6526C17.0953 22.3285 17.4159 22.0938 17.7503 21.8465L18.0114 21.6426C18.3529 21.3789 18.6706 21.1349 19.0612 20.9484C19.3724 20.7604 19.3724 20.7603 19.4538 20.3902C19.4719 20.248 19.49 20.1056 19.5086 19.9591C19.5194 19.8815 19.5302 19.804 19.5413 19.7241C19.5642 19.5578 19.586 19.3913 19.6067 19.2248C19.6614 18.7886 19.7254 18.3537 19.7886 17.9186C19.8009 17.8324 19.8133 17.746 19.826 17.6571C20.1271 15.5875 20.6365 13.4993 21.7134 11.6905C21.8766 11.4232 21.8766 11.4232 21.8492 11.0686C21.8118 11.1677 21.8118 11.1677 21.8118 11.1677C22.1242 10.9145 21.5143 11.2918 21.8492 11.0686C21.6998 11.1622 21.551 11.2563 21.4028 11.351C19.4293 12.6115 17.5683 13.9736 15.8764 15.6067L15.588 15.8805C14.9082 16.5402 14.3125 17.2522 13.7261 17.9951L13.4391 18.3483C12.5973 19.4052 11.8926 20.5279 11.2175 21.6972C11.1696 21.7797 11.1218 21.8623 11.0724 21.9473C8.74059 26.0099 7.85104 30.4377 7.83539 35.0725C7.83507 35.1628 7.83478 35.253 7.83445 35.346C7.8339 36.861 7.96294 38.3084 8.28627 39.7924C8.34467 40.0612 8.39666 40.3304 8.44667 40.6009C9.36834 45.2921 11.9947 49.6899 15.2791 53.1053C15.347 53.1765 15.415 53.2477 15.485 53.3211C16.4423 54.3191 17.425 55.2372 18.5384 56.0589C18.7417 56.209 18.9429 56.3616 19.1442 56.5144C20.2241 57.3218 21.3754 57.9696 22.566 58.5987L22.8057 58.7284C28.0218 61.5462 34.2279 62.2933 40.0067 61.1066C40.1277 61.0823 40.2487 61.0579 40.3734 61.0329C43.959 60.2878 47.439 58.726 50.3995 56.5685C50.4662 56.5203 50.533 56.472 50.6017 56.4223C51.5899 55.7008 52.5034 54.9078 53.3859 54.0607C53.4533 53.9966 53.5206 53.9326 53.59 53.8666C54.618 52.884 55.5202 51.8542 56.3724 50.7169L56.6127 50.4122L56.8129 50.1571L56.9785 49.9467C57.0812 49.8008 57.109 49.7611 57.1049 49.6183C57.0996 49.6261 57.0944 49.6341 57.0891 49.6421V49.4032C56.9336 49.382 56.9336 49.382 56.775 49.3604C56.3745 49.2842 56.0415 49.1688 55.6654 49.0132C55.4583 48.9287 55.4583 48.9286 55.247 48.8424C55.1738 48.8121 55.1005 48.7819 55.0251 48.7508C53.5199 48.1304 52.0015 47.5485 50.4742 46.9849L50.1902 46.8801C49.6629 46.6855 49.1354 46.4916 48.6077 46.2982V45.3428C49.3532 45.5826 50.0836 45.8491 50.8101 46.1415L51.1229 46.2672C53.2513 47.1295 55.3846 48.0508 57.328 49.2838C58.017 48.3884 58.5188 47.4392 59.0027 46.4246C59.1156 46.188 59.2303 45.9522 59.3453 45.7165C61.6583 40.9293 62.4257 35.1629 61.3896 29.9374C61.3559 29.7641 61.3559 29.764 61.3216 29.5873C60.5794 25.8971 59.0716 22.3553 56.8502 19.3088C56.8019 19.2421 56.7537 19.1754 56.7039 19.1068C56.0687 18.2372 55.38 17.4316 54.643 16.647C54.3925 16.3779 54.1528 16.1042 53.916 15.8231C52.4446 14.142 50.502 12.8272 48.6077 11.6657C48.6077 12.0741 48.7228 12.1996 48.9492 12.5232C49.2139 12.9455 49.3823 13.4123 49.5633 13.8751C49.6052 13.9815 49.647 14.0881 49.6901 14.1977C50.0213 15.0537 50.3089 15.9065 50.519 16.8009C50.538 16.8807 50.557 16.9605 50.5766 17.0427C50.9298 18.5673 51.1014 20.1134 51.2656 21.6674C51.2762 21.767 51.2868 21.8667 51.2978 21.9694C51.3283 22.2586 51.3578 22.548 51.3869 22.8373C51.3958 22.9231 51.4048 23.0089 51.414 23.0973C51.4733 23.7076 51.4817 24.3084 51.4746 24.9216C50.8353 23.9629 50.6149 23.1486 50.5274 22.0093C50.5086 21.7889 50.4897 21.5684 50.4709 21.348C50.4427 21.0065 50.4149 20.665 50.3877 20.3234C50.0724 16.4097 49.2985 12.3857 46.2152 9.66588C44.7814 8.46982 43.0474 7.78785 41.3208 7.12769C41.2274 7.08835 41.134 7.04903 41.0379 7.0085C40.4894 6.79983 39.9157 6.70156 39.3422 6.58282L38.9724 6.50282Z" fill="#FCFCFC"/>
    <path d="M30.656 10.2532C30.6628 9.83426 30.8144 9.5146 31.1107 9.29423C31.4071 9.06861 31.829 8.9603 32.3763 8.96927C32.929 8.97834 33.3399 9.04008 33.6091 9.15449L33.5905 10.2856C33.2622 10.144 32.8867 10.0698 32.464 10.0628C32.2473 10.0593 32.1004 10.0909 32.0234 10.1578C31.9465 10.2194 31.9071 10.3104 31.9051 10.4308L31.9032 10.5486C31.9008 10.6953 31.9234 10.8056 31.9709 10.8798C32.024 10.9487 32.1365 11.0291 32.3085 11.121L33.2268 11.6389C33.6673 11.8819 33.8837 12.239 33.8759 12.7103L33.868 13.1973C33.861 13.6215 33.6931 13.9461 33.3642 14.1712C33.0353 14.391 32.5756 14.4961 31.985 14.4864C31.3997 14.4768 30.9591 14.4093 30.663 14.284L30.6817 13.145C31.0477 13.3029 31.4637 13.3857 31.9297 13.3933C32.3957 13.401 32.6308 13.2765 32.6351 13.0199L32.637 12.9021C32.639 12.7817 32.6133 12.6922 32.5601 12.6337C32.5123 12.5701 32.4186 12.5004 32.2789 12.4248L31.4167 11.9549C30.8957 11.6635 30.6394 11.2612 30.6479 10.7481L30.656 10.2532Z" fill="black"/>
    <path d="M37.5285 10.4681L37.5201 10.9786C37.5118 11.4866 37.3143 11.795 36.9277 11.9039C37.3434 12.005 37.5469 12.3226 37.5381 12.8568L37.529 13.4145C37.5153 14.2471 37.0479 14.6559 36.1267 14.6408L34.1515 14.6084L34.2408 9.16486L36.1672 9.19646C37.0884 9.21157 37.5422 9.63544 37.5285 10.4681ZM35.9478 10.1829L35.4438 10.1746L35.4244 11.3607L35.9283 11.369C36.183 11.3731 36.3122 11.2626 36.3159 11.0375L36.3243 10.5269C36.328 10.3017 36.2025 10.187 35.9478 10.1829ZM36.3273 13.3162L36.3364 12.7585C36.3401 12.5333 36.2146 12.4186 35.96 12.4145L35.4072 12.4054L35.387 13.6386L35.9397 13.6477C36.1944 13.6519 36.3236 13.5414 36.3273 13.3162Z" fill="black"/>
    <path fill-rule="evenodd" clip-rule="evenodd" d="M49.6189 36.0214C49.6951 36.0381 49.6951 36.0385 49.78 36.0927C49.8134 36.1955 49.8348 36.2863 49.8503 36.3915C49.8552 36.4226 49.8599 36.4541 49.865 36.4862C49.9184 36.8641 49.9168 37.2427 49.9128 37.6229C49.9115 37.7465 49.9111 37.8705 49.9109 37.994C49.9105 38.0737 49.9094 38.1536 49.9089 38.2333C49.9087 38.2697 49.9091 38.3061 49.9089 38.3436C49.9068 38.528 49.8957 38.7076 49.8698 38.8905C49.8574 38.9869 49.8553 39.0826 49.8552 39.1796C49.8551 39.2176 49.8552 39.2556 49.8552 39.2948C49.8554 39.3336 49.856 39.373 49.8562 39.413C49.856 39.4521 49.8554 39.4917 49.8552 39.5321V39.7499C49.8576 39.8453 49.8577 39.846 49.8806 39.9344C49.9217 40.1168 49.9088 40.3058 49.9089 40.4911C49.9094 40.5333 49.9094 40.5755 49.9099 40.619C49.91 40.6797 49.9098 40.6803 49.9099 40.7421C49.91 40.7791 49.9107 40.8163 49.9109 40.8544C49.9011 40.9441 49.9006 40.9447 49.82 41.0155C49.8067 40.9804 49.7937 40.9452 49.78 40.9091C49.7797 40.9321 49.7794 40.9556 49.779 40.9794C49.7755 41.2212 49.7716 41.4632 49.7673 41.705C49.7658 41.795 49.7647 41.8854 49.7634 41.9755C49.7615 42.1054 49.759 42.2352 49.7566 42.3651C49.7561 42.4049 49.7561 42.4452 49.7556 42.4862C49.7504 42.7343 49.7186 42.9682 49.6589 43.2108C49.6191 43.1642 49.5798 43.1172 49.5388 43.0692C49.5384 43.0994 49.5382 43.1299 49.5378 43.161C49.5219 44.1826 49.5213 44.1828 49.4226 44.6542C49.4161 44.6857 49.4097 44.7174 49.403 44.7499C49.3689 44.8977 49.3392 45.0117 49.2165 45.1239C49.1517 44.9549 49.0902 44.7844 49.03 44.6141C49.0208 44.5883 49.0111 44.5626 49.0017 44.536C48.9791 44.4724 48.9568 44.4083 48.9343 44.3446C48.9349 44.4069 48.9346 44.4069 48.9353 44.4706C48.9367 44.6258 48.9384 44.7812 48.9392 44.9364C48.9396 45.0033 48.9395 45.0706 48.9402 45.1376C48.9411 45.2339 48.9418 45.3303 48.9421 45.4266C48.9425 45.4563 48.9427 45.4868 48.9431 45.5175C48.9431 45.695 48.9191 45.8404 48.8542 46.0087H48.7732C48.7135 45.8513 48.713 45.8511 48.6521 45.6903H48.572C48.5755 45.7516 48.5753 45.7518 48.5788 45.8143C48.6035 46.4552 48.5261 47.2225 48.1286 47.7802C48.089 47.7918 48.0493 47.8033 48.0085 47.8153C48.0015 47.7775 48.001 47.7776 47.9939 47.7391C47.9727 47.6252 47.9517 47.5112 47.9304 47.3973C47.9231 47.3578 47.9155 47.3179 47.9079 47.2772C47.9008 47.2393 47.8938 47.201 47.8864 47.162C47.8799 47.1269 47.8727 47.0917 47.8659 47.0555C47.8481 46.9616 47.8482 46.9616 47.8064 46.8593C47.7975 46.9285 47.7978 46.9291 47.7888 46.9999C47.6562 47.9576 47.2423 48.8107 46.4773 49.5155C46.4246 49.5406 46.3708 49.5641 46.3161 49.5858C46.3146 49.5552 46.3147 49.5549 46.3132 49.5233C46.3085 49.4292 46.3035 49.3352 46.2986 49.2411C46.297 49.2086 46.2953 49.1759 46.2937 49.1425C46.292 49.111 46.2905 49.0792 46.2888 49.0468C46.2866 49.0034 46.2871 49.0031 46.2849 48.9589C46.277 48.8812 46.2601 48.8111 46.2361 48.7362C46.2235 48.8037 46.2235 48.8041 46.2107 48.8729C46.0995 49.4328 45.9069 49.8757 45.5105 50.33C45.47 50.3776 45.4298 50.4259 45.3894 50.4735C44.971 50.9639 44.5327 51.4456 43.9402 51.7821H43.8591C43.8853 51.7175 43.8861 51.7172 43.9128 51.6512C43.9938 51.439 44.0471 51.2214 44.1013 51.0028H44.0202C44.0164 51.0392 44.0134 51.0757 44.0095 51.1132C43.927 51.5097 43.511 51.9452 43.1443 52.1825C42.998 52.2689 42.8462 52.3461 42.6911 52.4198C42.6779 52.3965 42.6648 52.3726 42.6511 52.3485C42.6876 52.2624 42.7263 52.1801 42.7693 52.0966C42.7809 52.0733 42.7934 52.0502 42.8054 52.0262C42.8344 51.9686 42.8638 51.9109 42.8933 51.8534C42.79 51.9437 42.6876 52.0345 42.5866 52.1268C42.3814 52.3128 42.187 52.4712 41.9265 52.5966C42.0061 52.6082 42.0857 52.6197 42.1677 52.6317C41.8511 52.9734 41.2505 53.0507 40.7898 53.1405C40.6754 53.1623 40.6753 53.1627 40.5573 53.1991V53.2694C40.9036 53.2576 40.9041 53.2574 41.2419 53.1962C41.3572 53.1645 41.4444 53.1566 41.5642 53.163C41.4311 53.2955 41.2765 53.3752 41.1003 53.4559C41.071 53.4694 41.0417 53.483 41.0114 53.4969C40.7767 53.6026 40.5369 53.6957 40.2927 53.7831C40.2597 53.7951 40.2261 53.8069 40.1921 53.8192C39.9897 53.8894 39.8075 53.9265 39.5905 53.9423C39.6304 53.8021 39.6696 53.6618 39.7107 53.5175C39.681 53.5469 39.6514 53.5769 39.6208 53.6073C39.0578 54.1594 38.34 54.7119 37.4558 54.7577C37.5209 54.6362 37.5998 54.5249 37.6823 54.412C37.7078 54.3771 37.7333 54.3424 37.7595 54.3065C37.7886 54.2668 37.7884 54.266 37.8181 54.2255C37.8049 54.2139 37.7917 54.2023 37.778 54.1903C37.758 54.2092 37.7372 54.2285 37.7165 54.2479C37.4625 54.4797 37.1875 54.6757 36.8913 54.8632C36.869 54.8775 36.847 54.8923 36.8239 54.9071C36.1672 55.324 35.5203 55.4252 34.7165 55.3593C34.5408 55.3307 34.3934 55.2862 34.2331 55.2177C34.1941 55.2027 34.1552 55.1872 34.115 55.1718C33.3853 54.8765 32.7877 54.3756 32.3757 53.7762C32.3533 53.744 32.3305 53.7119 32.3073 53.6786C32.2376 53.5779 32.1687 53.4767 32.0993 53.3759C32.056 53.3134 32.0119 53.2508 31.9685 53.1884C31.8491 53.0158 31.7319 52.8422 31.6159 52.6678C31.6002 52.6442 31.5843 52.6199 31.5681 52.5956C31.3301 52.2339 31.1659 51.858 31.0114 51.4637C30.973 52.1373 31.1931 52.7567 31.696 53.2694C31.7325 53.3071 31.769 53.345 31.8054 53.3827C31.8891 53.4689 31.9732 53.5555 32.0573 53.6415C32.0779 53.6625 32.0987 53.6833 32.1198 53.705C32.1724 53.7585 32.2262 53.8118 32.279 53.8651C32.9048 54.5119 32.904 54.5128 32.904 54.7577C32.0259 54.6774 31.4091 54.2045 30.8132 53.6727C30.7894 53.6515 30.7655 53.6302 30.7409 53.6083C30.6895 53.5533 30.6892 53.553 30.6892 53.4823H30.6091C30.6236 53.5121 30.6381 53.5424 30.653 53.5731L30.7663 53.8075C30.8103 53.9071 30.8103 53.9076 30.8103 53.9784C30.2389 53.8855 29.6629 53.65 29.1989 53.3407C29.1857 53.3173 29.1726 53.2935 29.1589 53.2694C29.212 53.2577 29.2653 53.2463 29.32 53.2343C29.2782 53.2218 29.2362 53.209 29.1931 53.1962C28.5348 52.9939 28.1377 52.7159 27.7722 52.1903C27.7113 52.1013 27.7114 52.1009 27.6404 52.0253C27.5882 51.9595 27.5876 51.9592 27.5876 51.8534H27.5075C27.5167 51.8797 27.5255 51.9063 27.5349 51.9335C27.5464 51.9683 27.5581 52.0031 27.57 52.0389C27.5817 52.0735 27.5941 52.1079 27.6062 52.1434C27.6284 52.2411 27.6254 52.2923 27.5876 52.3846C26.9894 52.055 26.6096 51.6887 26.3396 51.1093C26.3555 51.2986 26.3704 51.4658 26.4607 51.6405V51.7469C25.858 51.5606 25.4427 51.0171 25.0769 50.5848C25.0136 50.5103 24.9496 50.4362 24.8855 50.3622C24.458 49.8649 24.2433 49.3914 24.1648 48.7714H24.1238C24.0858 48.947 24.0717 49.1206 24.0613 49.2987C24.0587 49.3401 24.059 49.3403 24.0564 49.3827C24.0521 49.4504 24.0477 49.5181 24.0437 49.5858C23.4485 49.1875 23.0287 48.5358 22.7946 47.9218C22.7814 47.8915 22.7682 47.8612 22.7546 47.83C22.6931 47.6467 22.6627 47.4589 22.6286 47.2704C22.6214 47.2311 22.6146 47.1917 22.6071 47.1512C22.5892 47.0541 22.571 46.9565 22.5534 46.8593C22.4794 47.1771 22.41 47.4948 22.3523 47.8153H22.2712C22.2393 47.7541 22.2073 47.6929 22.1755 47.6317C22.1578 47.5976 22.1401 47.5633 22.1218 47.5282C22.1047 47.4944 22.0877 47.4605 22.07 47.4257C22.0563 47.3992 22.0422 47.3729 22.028 47.3456C21.9718 47.2055 21.9406 47.0626 21.9089 46.9169C21.9019 46.8848 21.8946 46.8522 21.8874 46.8192C21.81 46.4455 21.7775 46.0689 21.7478 45.6903C21.6947 45.7954 21.6414 45.9004 21.5866 46.0087H21.5066C21.4402 45.7872 21.4137 45.5821 21.4177 45.3534C21.4177 45.3257 21.4186 45.298 21.4187 45.2694C21.4201 45.1023 21.4338 44.9391 21.4568 44.7733C21.4696 44.6649 21.4698 44.5571 21.4685 44.4481C21.4681 44.4085 21.4679 44.3688 21.4675 44.328C21.467 44.2985 21.466 44.2686 21.4655 44.2382C21.4585 44.2623 21.4513 44.2865 21.4441 44.3114C21.4119 44.4212 21.3797 44.5318 21.3474 44.6415C21.3363 44.6795 21.3256 44.7176 21.3142 44.7567C21.3034 44.7932 21.2921 44.8304 21.281 44.868C21.2711 44.9016 21.2609 44.935 21.2507 44.9696C21.2239 45.0524 21.2246 45.0531 21.1843 45.1239H21.1032C20.8322 44.4556 20.821 43.8051 20.822 43.1044C20.7821 43.1745 20.7816 43.1754 20.7409 43.2469C20.675 43.0943 20.6504 42.9684 20.6511 42.8055C20.6511 42.7609 20.6511 42.7158 20.6511 42.6698C20.6515 42.6216 20.6516 42.5734 20.6521 42.5253C20.6522 42.4755 20.653 42.4256 20.653 42.3759C20.6534 42.2456 20.6541 42.1154 20.655 41.9852C20.6558 41.8521 20.6565 41.7189 20.657 41.5858C20.6578 41.3249 20.6592 41.0635 20.6609 40.8026H20.5798V40.9794C20.5533 40.991 20.527 41.0035 20.4997 41.0155C20.4438 40.8449 20.4517 40.6761 20.4519 40.4999C20.4518 40.4646 20.4519 40.4288 20.4519 40.3925C20.4535 40.1881 20.4698 39.9993 20.5212 39.7997C20.5741 39.5205 20.5495 39.2267 20.5193 38.9462C20.4964 38.708 20.4932 38.4712 20.4929 38.2323C20.4928 38.1877 20.4921 38.1425 20.4919 38.0966C20.4917 38.0029 20.4919 37.909 20.4919 37.8153C20.4919 37.7203 20.4915 37.6252 20.4909 37.5302C20.4902 37.3915 20.49 37.2528 20.49 37.1141C20.4897 37.0723 20.4893 37.0303 20.489 36.9872C20.4913 36.2443 20.4919 36.2442 20.6609 36.0214C20.7005 36.033 20.7401 36.0446 20.781 36.0565C20.7868 36.0883 20.7925 36.1205 20.7986 36.1532C20.9148 36.7821 21.0365 37.41 21.1716 38.036C21.1774 38.0628 21.1833 38.0895 21.1892 38.1171C21.2458 38.3795 21.3045 38.6421 21.3689 38.9032C21.5144 39.4946 21.5982 40.0811 21.6345 40.6844C21.656 41.0389 21.6908 41.3783 21.7878 41.7235C21.8021 41.7751 21.8025 41.7754 21.8171 41.828C21.8362 41.8952 21.8558 41.9622 21.8757 42.0292C21.949 42.2914 22.0081 42.5567 22.07 42.8212C22.0966 42.7745 22.1238 42.7276 22.1511 42.6796C22.412 43.1335 22.5886 43.6037 22.7624 44.0878C22.8339 44.2835 22.9111 44.454 23.0368 44.6278C23.0568 44.4001 23.0566 44.3999 23.0769 44.1678C23.2361 44.2378 23.2598 44.2492 23.3396 44.3749C23.3574 44.4024 23.3749 44.4305 23.3933 44.4589C23.4118 44.4883 23.4309 44.5174 23.4499 44.5477C23.4695 44.5781 23.4883 44.6092 23.5085 44.6405C23.595 44.775 23.6805 44.91 23.7644 45.0458C23.9737 45.3796 24.2185 45.7373 24.5271 46.0087C24.5403 45.9621 24.5535 45.9151 24.5671 45.8671C25.0265 46.0275 25.3881 46.5265 25.614 46.8944V46.9657C25.7795 46.8634 25.8593 46.7755 25.9363 46.6112C25.9429 46.5725 25.9499 46.5339 25.9568 46.494C26.054 46.2837 26.2582 46.178 26.4607 46.0448C26.6092 45.9446 26.6867 45.8661 26.782 45.7255C26.8429 45.6694 26.9065 45.6168 26.9714 45.5643C27.0341 45.5108 27.0341 45.5103 27.0642 45.4071C27.0111 45.3954 26.9578 45.384 26.903 45.3719C26.9201 45.3586 26.9372 45.3447 26.9548 45.3309C27.3896 44.9721 27.7128 44.4427 27.782 43.9198C27.8372 43.5849 27.9665 43.2693 28.1482 42.9716C28.197 42.8829 28.2372 42.7921 28.2771 42.7001C28.3811 42.4609 28.4925 42.2432 28.6755 42.0419C28.6935 42.0209 28.7116 42 28.7302 41.9784C29.1217 41.5787 29.8051 41.4371 30.3669 41.3339H30.488C30.4481 41.4391 30.4476 41.4394 30.407 41.5468C30.7446 41.4217 31.0663 41.2987 31.3738 41.1219C31.4624 41.0995 31.4626 41.0988 31.5349 41.0858C31.5216 41.1443 31.5085 41.2033 31.4948 41.2635C31.5165 41.2541 31.538 41.244 31.5603 41.2343C32.699 40.7402 33.0738 40.5785 33.4675 40.5956L33.3415 40.2469C34.1153 40.247 34.0725 40.3324 34.7175 39.6874C35.3625 39.0424 36.0939 38.5692 36.8249 38.5692C37.5558 38.5694 38.0717 39.0424 38.5017 38.2255C38.8457 37.5719 38.9886 37.2649 39.0173 37.1932V38.2255C39.0171 38.6844 39.1989 39.1313 37.5339 39.6874C36.9191 39.8927 37.5674 40.5661 38.4402 41.0858C38.5823 41.1454 38.7241 41.2045 38.865 41.2635C38.8517 41.2051 38.8386 41.146 38.8249 41.0858C39.0634 41.1461 39.2603 41.2495 39.4724 41.3593C39.6293 41.439 39.7773 41.5024 39.9529 41.5468C39.9263 41.4766 39.8992 41.4061 39.8718 41.3339C41.4249 41.6551 41.4252 41.6555 41.8611 42.2372C41.9872 42.4185 42.077 42.6119 42.1677 42.8085C42.1939 42.8649 42.1946 42.8651 42.2214 42.9227C42.2712 43.0305 42.3208 43.1389 42.3698 43.2469C42.382 43.2734 42.3944 43.2998 42.407 43.327C42.5036 43.5379 42.5771 43.7269 42.5886 43.955C42.6174 44.4679 43.0054 44.9479 43.3962 45.3085C43.4567 45.3714 43.4568 45.3716 43.4568 45.4423H43.3357C43.3576 45.468 43.3583 45.4679 43.3806 45.494C43.4008 45.5178 43.4212 45.5418 43.4421 45.5663C43.4646 45.5923 43.4873 45.6186 43.5105 45.6454C43.5512 45.6938 43.5905 45.7432 43.6277 45.7938C43.7602 45.9687 43.9189 46.0789 44.1091 46.202C44.3083 46.332 44.4347 46.424 44.4861 46.6464C44.5144 46.762 44.5831 46.8369 44.6648 46.9296C44.6913 46.9413 44.7184 46.9537 44.7458 46.9657C44.761 46.9286 44.7608 46.9281 44.7761 46.8905C44.9748 46.4849 45.3466 46.1597 45.7126 45.8671H45.7527V46.08H45.8327C45.8422 46.0609 45.8523 46.042 45.862 46.0223C45.9281 45.9156 46.0108 45.827 46.0974 45.7323C46.3674 45.4297 46.5798 45.1017 46.7946 44.7675C46.8144 44.737 46.8339 44.7061 46.8542 44.6747C46.8927 44.6151 46.9306 44.555 46.9685 44.495C46.986 44.4678 47.0041 44.441 47.0222 44.413C47.0376 44.3887 47.0532 44.3637 47.0691 44.3387C47.122 44.2737 47.1224 44.2737 47.2829 44.1678C47.2962 44.3196 47.3093 44.4714 47.323 44.6278C47.5692 44.3185 47.6896 43.9745 47.7995 43.6122C47.9004 43.2894 48.0564 42.9853 48.2097 42.6796H48.2898C48.303 42.7146 48.3161 42.75 48.3298 42.786C48.5227 42.0705 48.7091 41.3611 48.7654 40.6259C48.7674 40.5996 48.7701 40.5728 48.7722 40.5458C48.78 40.443 48.787 40.3399 48.7946 40.2372C48.8245 39.8553 48.8982 39.4789 48.9743 39.1024C48.9823 39.0625 48.9905 39.0224 48.9988 38.9813C49.0792 38.5829 49.1646 38.1855 49.2614 37.7899C49.3732 37.3325 49.4608 36.8743 49.5085 36.4081C49.524 36.2677 49.5501 36.1492 49.6189 36.0214Z" fill="black"/>
    <path d="M30.0115 52.0624C30.3111 52.5559 31.1924 53.8082 31.7917 54.2753C30.5297 54.0708 30.0555 52.7205 30.0115 52.0624Z" fill="#FBFBFB"/>
    <path d="M28.0906 50.5751C28.202 50.9642 28.5299 51.951 28.7527 52.3192C28.0035 51.9288 28.1069 51.0939 28.0906 50.5751Z" fill="#FBFBFB"/>
    <path fill-rule="evenodd" clip-rule="evenodd" d="M41.1169 43.8485C41.213 44.0041 41.2846 44.1457 41.3318 44.3182C41.387 44.5128 41.4792 44.6804 41.5847 44.8573C41.7581 45.1558 41.7002 45.5593 41.6101 45.8759C41.5677 46.1806 41.6891 46.4384 41.8191 46.7157C41.8525 46.7882 41.8855 46.8609 41.9187 46.9335C41.9335 46.9651 41.9484 46.9966 41.9636 47.0292C41.9959 47.1068 41.9958 47.1071 41.9958 47.1776L41.5164 47.036V48.3466C41.398 48.2941 41.2822 48.2397 41.1667 48.1825L41.0701 48.1346L40.9978 48.0985L41.0095 48.1923C40.996 48.3211 40.9577 48.3817 40.8621 48.4784C40.7459 48.5593 40.6115 48.5539 40.4705 48.5526C40.2682 48.5473 40.2677 48.5473 40.0779 48.5946C40.0592 48.6773 40.0449 48.7609 40.033 48.8446L40.0134 48.9833L39.9988 49.0907C39.8369 49.0063 39.6832 48.9143 39.53 48.8182C39.4321 48.7686 39.35 48.7504 39.239 48.7362L39.2791 48.9843C38.9894 48.9674 38.7491 48.9032 38.4802 48.8075L38.4998 48.8964C38.5219 49.0302 38.5263 49.1586 38.5271 49.2938L38.5291 49.4354C38.5199 49.5509 38.5201 49.5511 38.4402 49.6219L38.3816 49.5233C38.2171 49.2477 38.0475 48.9746 37.8708 48.705C37.7771 48.5577 37.6935 48.4228 37.6443 48.2587C37.4968 47.8314 37.0117 47.4855 36.6023 47.2489C36.4919 47.2024 36.4914 47.2019 36.4021 47.1776L36.4441 47.2479L36.4998 47.3417L36.5544 47.4335C36.6049 47.5376 36.6262 47.6329 36.6423 47.745C36.4234 47.6236 36.2057 47.5003 35.9949 47.368C35.7211 47.1691 35.7208 47.1695 35.4031 47.0721L35.4177 47.1893C35.4193 47.4005 35.2944 47.5743 35.1638 47.745L35.0837 47.7802C34.9367 47.6604 34.8442 47.5525 34.7634 47.3905H34.5642L34.6042 47.036C34.2907 47.198 34.0141 47.3867 33.7371 47.5936C33.7108 47.6131 33.6841 47.6322 33.657 47.6522C33.6334 47.6699 33.61 47.6877 33.5857 47.7059C33.5249 47.7443 33.525 47.745 33.4451 47.745C33.4593 47.548 33.5239 47.4177 33.6384 47.2489C33.6901 47.1745 33.6911 47.1749 33.7253 47.0721C33.139 47.3811 32.5784 47.7449 32.3289 48.3241C32.2589 48.4768 32.1695 48.6189 32.0789 48.7626C32.0598 48.793 32.0409 48.824 32.0212 48.8553C31.9611 48.9504 31.9001 49.0449 31.8376 49.1385L31.6003 49.4813C31.5651 49.5295 31.526 49.5761 31.4871 49.6219H31.407V48.8075L31.1277 48.913C30.978 48.9307 30.9779 48.9306 30.8484 48.913L30.7927 48.827C30.7393 48.7337 30.7392 48.7335 30.655 48.7079C30.4963 48.6797 30.4025 48.6844 30.2585 48.7548C30.1882 48.7993 30.1191 48.8456 30.0515 48.8934C29.9691 48.9488 29.9689 48.9491 29.8894 48.9491V48.453L29.7439 48.4882C29.6019 48.5189 29.4765 48.5424 29.3298 48.5243C29.1776 48.4134 29.1632 48.2271 29.1296 48.0634L29.0457 48.118L28.825 48.2567C28.7299 48.3108 28.73 48.3114 28.6501 48.3114C28.6021 48.0458 28.6062 47.783 28.6082 47.5145V47.3749C28.6086 47.262 28.6093 47.1489 28.6101 47.036L28.2107 47.1776C28.2339 47.02 28.2817 46.8914 28.3533 46.746C28.4513 46.5286 28.4745 46.3471 28.4509 46.1151L28.0906 46.08L28.157 45.9491C28.3015 45.6562 28.4277 45.3793 28.4968 45.0643C28.5474 44.888 28.6297 44.7253 28.7107 44.5585C28.7955 44.382 28.8512 44.2154 28.8904 44.0262C28.9151 43.9666 28.94 43.9064 28.9695 43.8485C29.326 43.8294 29.6474 43.8938 29.9929 43.9618C30.6816 44.0966 31.3654 44.1917 32.0662 44.2596C32.1988 44.2731 32.3313 44.2883 32.4636 44.3046C32.5036 44.3095 32.5436 44.3142 32.5847 44.3192C32.6556 44.328 32.7268 44.3373 32.7976 44.3466C34.4287 44.5448 36.1741 44.4745 37.8005 44.2733C37.856 44.2665 37.8562 44.2666 37.9128 44.2596C38.7325 44.1586 39.554 44.0553 40.363 43.8993C40.6173 43.8518 40.8574 43.8403 41.1169 43.8485ZM35.9558 45.7157C35.9158 45.7165 35.8765 45.7169 35.8376 45.7177C34.9224 45.7361 34.0094 45.7161 33.0945 45.6932C33.0507 45.6921 33.008 45.6914 32.9656 45.6903C32.9638 45.7611 32.964 45.8324 32.9656 45.9032C33.0235 46.0059 33.0237 46.006 33.2292 46.16C33.8709 46.5732 34.9976 46.5242 35.7478 46.4462L35.8425 46.4344C36.0805 46.4094 36.3046 46.3616 36.531 46.2928C36.5602 46.2837 36.5886 46.2744 36.6169 46.2655C36.7827 46.2162 36.9189 46.1669 37.0408 46.0526C37.1315 45.924 37.1319 45.9237 37.1218 45.6903C36.7333 45.6991 36.3444 45.708 35.9558 45.7157Z" fill="#FBFBFB"/>
    <path d="M35.0437 42.3964C35.1249 42.4612 35.1772 42.5216 35.2361 42.6044C35.3984 42.8099 35.619 42.9596 35.8972 43.0184C36.0029 43.0339 36.1037 43.0403 36.2107 43.0428C36.2497 43.044 36.2887 43.0456 36.3289 43.0468C36.4101 43.0489 36.4917 43.0507 36.573 43.0526C36.7898 43.0593 36.9894 43.0776 37.2 43.1239C37.3203 43.1483 37.4402 43.1561 37.5632 43.163C37.6082 43.1656 37.6536 43.168 37.7 43.1708C37.7331 43.1725 37.7663 43.1739 37.8005 43.1757C37.7808 43.1538 37.7613 43.1318 37.741 43.1093C37.6812 43.0342 37.6804 43.0341 37.6804 42.9637C37.9115 43.005 38.1283 43.0592 38.3503 43.1288C38.7871 43.2639 39.2617 43.3818 39.7185 43.2469C40.1205 43.2235 40.4675 43.2298 40.8376 43.3885C40.6619 43.5443 40.3966 43.5901 40.1609 43.6405C40.1343 43.6465 40.1072 43.6529 40.0798 43.6591C39.6682 43.7489 39.2582 43.7504 38.8367 43.7509C38.7885 43.751 38.7883 43.7517 38.739 43.7518C38.2789 43.7523 37.8263 43.7327 37.3689 43.6893C37.3175 43.6845 37.2656 43.6797 37.2126 43.6747C37.164 43.6701 37.1153 43.6658 37.0652 43.661C36.5546 43.6126 36.1248 43.6377 35.6277 43.7499C35.1605 43.8532 34.7834 43.8211 34.3191 43.7245C33.6913 43.5944 33.1338 43.6218 32.5007 43.704C32.0844 43.7522 31.6689 43.7518 31.2498 43.7509C31.2148 43.7508 31.1793 43.7509 31.1433 43.7509C31.0421 43.7506 30.9408 43.7506 30.8396 43.7499C30.8097 43.7497 30.7796 43.7491 30.7488 43.7489C30.4597 43.7455 30.1773 43.7299 29.9011 43.6493C29.8628 43.6383 29.8244 43.6274 29.7849 43.6161C29.746 43.6046 29.7068 43.5928 29.6667 43.5809C29.6265 43.5693 29.5861 43.5578 29.5447 43.5458C29.4463 43.5173 29.348 43.4879 29.2498 43.4589V43.3885C29.6489 43.2021 30.0522 43.2159 30.488 43.2821C31.0862 43.3371 31.587 43.1688 32.1423 42.9911C32.2462 42.9637 32.2465 42.9637 32.406 42.9637C32.3602 43.0508 32.3245 43.1067 32.2468 43.1757C32.6197 43.1535 32.9924 43.1304 33.365 43.1053C33.4047 43.1027 33.4451 43.0993 33.4861 43.0966C34.0174 43.0596 34.511 43.0189 34.8835 42.6444C34.9463 42.5634 34.9947 42.485 35.0437 42.3964Z" fill="#FBFBFB"/>
</svg>
